<svg aria-hidden="true" style="position: absolute; width: 0; height: 0; overflow: hidden;" version="1.1" xmlns="http://www.w3.org/2000/svg" xmlns:xlink="http://www.w3.org/1999/xlink">
<defs>
<symbol id="icon-play" viewBox="0 0 27 32">
<path fill="#fff" style="fill: var(--color1, #fff)" d="M26.914 16.126c0.001 0.413-0.105 0.818-0.307 1.178s-0.494 0.661-0.847 0.874l-21.883 13.387c-0.369 0.226-0.792 0.349-1.224 0.357s-0.859-0.1-1.236-0.312c-0.373-0.209-0.685-0.513-0.901-0.882s-0.331-0.789-0.332-1.217v-26.771c0.001-0.428 0.115-0.848 0.332-1.217s0.528-0.673 0.901-0.882c0.377-0.212 0.804-0.32 1.236-0.312s0.855 0.131 1.224 0.357l21.883 13.387c0.353 0.213 0.645 0.514 0.847 0.874s0.308 0.765 0.307 1.178z"></path>
</symbol>
<symbol id="icon-Vector-8" viewBox="0 0 44 32">
<path d="M1.352 17.688c-0.453-0.448-0.708-1.055-0.708-1.688s0.255-1.24 0.708-1.688l13.682-13.507c0.223-0.228 0.49-0.41 0.785-0.535s0.612-0.191 0.934-0.194c0.321-0.003 0.64 0.058 0.937 0.178s0.567 0.297 0.794 0.521c0.227 0.224 0.407 0.491 0.528 0.784s0.183 0.608 0.18 0.925c-0.003 0.317-0.070 0.63-0.196 0.922s-0.311 0.555-0.542 0.775l-9.553 9.431h32.030c0.641 0 1.257 0.252 1.71 0.699s0.708 1.055 0.708 1.688-0.255 1.24-0.708 1.688c-0.454 0.448-1.069 0.699-1.71 0.699h-32.030l9.553 9.431c0.441 0.45 0.684 1.053 0.679 1.679s-0.26 1.225-0.708 1.668c-0.448 0.443-1.055 0.694-1.689 0.699s-1.245-0.235-1.701-0.67l-13.682-13.507z"></path>
</symbol>
<symbol id="icon-Group-2" viewBox="0 0 33 32">
<path fill="#fff" style="fill: var(--color1, #fff)" d="M17.337 0.263c0 0-0.008 0-0.012 0 0 0-0.004 0-0.006 0-0.023-0.004-0.102-0.013-0.143-0.019l-0.149-0.021c-0.075-0.011-0.149-0.019-0.226-0.026-0.042-0.004-0.089-0.006-0.133-0.008-0.025 0-0.060-0.002-0.085-0.004-0.052 0-0.104-0.043-0.102-0.094 0-0.051 0.027-0.086 0.083-0.088h0.023c0.025 0 0.062 0.002 0.089 0.004 0.046 0 0.095 0.006 0.139 0.007 0.081 0.007 0.159 0.015 0.238 0.026l0.149 0.022c0.041 0.006 0.118 0.017 0.141 0.019 0.050 0.007 0.089 0.053 0.081 0.101-0.006 0.045-0.044 0.079-0.091 0.079h0.004z"></path>
<path fill="#fff" style="fill: var(--color1, #fff)" d="M18.295 0.369c0 0-0.010 0-0.013 0-0.139-0.019-0.286-0.038-0.421-0.053l-0.203-0.023-0.019-0.002c-0.050-0.008-0.091-0.053-0.085-0.101s0.048-0.084 0.099-0.081h0.004l0.004 0.092 0.021-0.088 0.203 0.023c0.137 0.015 0.284 0.034 0.425 0.054 0.050 0.008 0.087 0.053 0.079 0.103-0.006 0.045-0.046 0.077-0.093 0.077v-0.002z"></path>
<path fill="#fff" style="fill: var(--color1, #fff)" d="M16.582 0.184h-0.505c-0.052-0.002-0.093-0.043-0.093-0.094s0.043-0.090 0.093-0.090h0.505c0.052 0.004 0.093 0.045 0.091 0.094 0 0.049-0.043 0.088-0.093 0.088l0.002 0.002z"></path>
<path fill="#fff" style="fill: var(--color1, #fff)" d="M16.338 0.182h-0.259c-0.052 0-0.093-0.041-0.093-0.092s0.043-0.090 0.093-0.090h0.261c0.052 0 0.093 0.041 0.093 0.092s-0.042 0.090-0.093 0.090h-0.002z"></path>
<path fill="#fff" style="fill: var(--color1, #fff)" d="M15.488 0.184c-0.050 0-0.093-0.039-0.093-0.088 0-0.051 0.041-0.092 0.091-0.092 0.060 0 0.106 0 0.166 0h0.079c0.052 0 0.093 0.039 0.093 0.090s-0.041 0.090-0.093 0.090h-0.079c-0.058 0-0.104 0-0.164 0.002v-0.002z"></path>
<path fill="#fff" style="fill: var(--color1, #fff)" d="M14.732 0.261c-0.046 0-0.087-0.032-0.095-0.079-0.008-0.049 0.027-0.094 0.077-0.101 0.027-0.004 0.104-0.013 0.145-0.019l0.149-0.022c0.079-0.011 0.157-0.021 0.238-0.026 0.046-0.004 0.095-0.007 0.139-0.007h0.017c0.050-0.002 0.095 0.037 0.095 0.088s-0.041 0.092-0.091 0.092h-0.012c-0.044 0.002-0.091 0.006-0.133 0.009-0.077 0.006-0.151 0.015-0.226 0.026l-0.149 0.021c-0.041 0.006-0.12 0.017-0.143 0.019-0.004 0-0.008 0-0.012 0z"></path>
<path fill="#fff" style="fill: var(--color1, #fff)" d="M13.773 0.369c-0.046 0-0.085-0.032-0.093-0.077-0.008-0.049 0.029-0.096 0.079-0.103 0.141-0.021 0.29-0.038 0.425-0.054l0.203-0.022 0.029 0.088-0.012-0.090 0.021 0.088 0.010 0.090-0.017-0.090v0.090l-0.211 0.023c-0.135 0.015-0.282 0.034-0.421 0.053-0.004 0-0.010 0-0.014 0v0.006z"></path>
<path fill="#fff" style="fill: var(--color1, #fff)" d="M16.553 0.182h-0.476c-0.052 0-0.093-0.041-0.093-0.092s0.043-0.090 0.093-0.090h0.458c0.052 0 0.101 0.043 0.101 0.092 0 0.051-0.033 0.090-0.085 0.090h0.002z"></path>
<path fill="#fff" style="fill: var(--color1, #fff)" d="M16.661 31.993c-0.050 0-0.093-0.039-0.093-0.088 0-0.051 0.041-0.092 0.091-0.092v0.090l0.008-0.090c0.048 0 0.095-0.006 0.137-0.008 0.077-0.006 0.151-0.015 0.226-0.026l0.149-0.023c0.041-0.006 0.12-0.017 0.143-0.019l0.027 0.18c-0.025 0.004-0.104 0.013-0.143 0.019l-0.149 0.023c-0.079 0.011-0.157 0.021-0.238 0.026-0.044 0.004-0.095 0.008-0.139 0.009h-0.017l-0.002-0.002z"></path>
<path fill="#fff" style="fill: var(--color1, #fff)" d="M17.642 31.886c-0.046 0-0.089-0.034-0.093-0.081-0.006-0.049 0.031-0.094 0.081-0.099h0.004c0 0 0.015 0 0.023 0v-0.004l0.184-0.021h0.017c0.135-0.017 0.282-0.036 0.421-0.054 0.050-0.006 0.099 0.028 0.106 0.077s-0.029 0.096-0.079 0.103c-0.141 0.019-0.288 0.038-0.425 0.054h-0.017l-0.186 0.023c0 0-0.012 0-0.015 0s-0.008 0-0.010 0c-0.004 0-0.006 0-0.010 0l-0.002 0.002z"></path>
<path fill="#fff" style="fill: var(--color1, #fff)" d="M16.337 31.998c-0.052 0-0.093-0.039-0.093-0.090s0.041-0.090 0.093-0.092h0.079c0.058 0 0.104 0 0.164-0.002 0 0 0 0 0.002 0 0.050 0 0.093 0.039 0.093 0.088 0 0.051-0.041 0.092-0.091 0.092-0.060 0-0.108 0-0.166 0h-0.079l-0.002 0.004z"></path>
<path fill="#fff" style="fill: var(--color1, #fff)" d="M15.731 31.998h-0.245c-0.052-0.004-0.093-0.045-0.091-0.094 0-0.049 0.042-0.088 0.093-0.088h0.242c0.052 0.002 0.093 0.043 0.093 0.092s-0.043 0.090-0.093 0.090h0.002z"></path>
<path fill="#fff" style="fill: var(--color1, #fff)" d="M15.439 31.994h-0.048c-0.046-0.004-0.095-0.007-0.141-0.009-0.081-0.006-0.159-0.015-0.238-0.026l-0.151-0.023c-0.041-0.006-0.118-0.017-0.141-0.019-0.004 0-0.012 0-0.017-0.004-0.050-0.013-0.077-0.064-0.064-0.113 0.013-0.045 0.060-0.071 0.106-0.064 0.033 0.004 0.104 0.013 0.141 0.019l0.149 0.023c0.075 0.011 0.149 0.019 0.226 0.026 0.043 0.004 0.089 0.006 0.133 0.008h0.042l0.002 0.092-0.004 0.090h0.004z"></path>
<path fill="#fff" style="fill: var(--color1, #fff)" d="M15.473 31.995l-0.325-0.013c-0.052-0.004-0.091-0.047-0.087-0.097s0.046-0.088 0.101-0.084l0.313 0.013 0.012 0.090-0.014 0.090v0.002z"></path>
<path fill="#fff" style="fill: var(--color1, #fff)" d="M14.427 31.886c0 0-0.010 0-0.015 0s-0.021-0.002-0.021-0.002l-0.184-0.021h-0.017c-0.137-0.017-0.284-0.036-0.425-0.056-0.050-0.007-0.087-0.053-0.079-0.103 0.008-0.049 0.054-0.083 0.106-0.077 0.139 0.019 0.286 0.038 0.421 0.053h0.017l0.184 0.023 0.019 0.002c0.006 0 0.019 0.004 0.025 0.006 0.048 0.015 0.075 0.067 0.060 0.114-0.014 0.038-0.050 0.062-0.089 0.062h-0.002z"></path>
<path fill="#fff" style="fill: var(--color1, #fff)" d="M18.489 31.778c-0.044 0-0.085-0.032-0.093-0.077-0.008-0.049 0.027-0.096 0.077-0.103l0.085-0.013c0.124-0.019 0.247-0.041 0.371-0.064s0.247-0.047 0.373-0.075l0.095-0.021c0.050-0.011 0.101 0.019 0.112 0.068s-0.019 0.098-0.070 0.109l-0.095 0.021c-0.128 0.026-0.253 0.053-0.379 0.075s-0.251 0.045-0.375 0.064l-0.085 0.013c0 0-0.010 0-0.015 0l-0.002 0.004z"></path>
<path fill="#fff" style="fill: var(--color1, #fff)" d="M16.614 31.994c-0.050 0-0.093-0.039-0.093-0.088 0-0.051 0.041-0.092 0.093-0.092h0.015c0.048 0 0.101-0.004 0.143-0.007 0.089-0.006 0.174-0.017 0.261-0.028l0.11-0.017 0.035 0.178-0.118 0.017c-0.101 0.015-0.188 0.023-0.275 0.030-0.044 0.004-0.101 0.006-0.145 0.007h-0.027z"></path>
<path fill="#fff" style="fill: var(--color1, #fff)" d="M16.345 31.997l-0.010-0.090v-0.090h0.313c0.070-0.004 0.139-0.006 0.209-0.011 0.050-0.004 0.097 0.034 0.099 0.084 0.004 0.049-0.035 0.094-0.087 0.096-0.073 0.006-0.145 0.007-0.216 0.007l-0.307 0.004z"></path>
<path fill="#fff" style="fill: var(--color1, #fff)" d="M17.163 0.238c0 0-0.010 0-0.015 0-0.089-0.015-0.193-0.032-0.307-0.041-0.070-0.006-0.143-0.009-0.236-0.011-0.052 0-0.093-0.043-0.091-0.092 0-0.051 0.048-0.088 0.095-0.088 0.097 0.002 0.176 0.006 0.247 0.011 0.122 0.009 0.232 0.028 0.323 0.043 0.050 0.008 0.085 0.054 0.075 0.105-0.008 0.045-0.046 0.075-0.093 0.075l0.002-0.002z"></path>
<path fill="#fff" style="fill: var(--color1, #fff)" d="M22.941 1.796c-0.013 0-0.027-0.004-0.041-0.009-0.261-0.126-0.534-0.248-0.809-0.361-0.269-0.111-0.542-0.216-0.816-0.314-0.267-0.096-0.54-0.184-0.807-0.265-0.263-0.079-0.528-0.15-0.783-0.212-0.050-0.011-0.081-0.062-0.068-0.111 0.012-0.049 0.064-0.079 0.112-0.066 0.259 0.062 0.526 0.135 0.793 0.216 0.271 0.081 0.546 0.171 0.816 0.267 0.277 0.098 0.553 0.205 0.824 0.318 0.277 0.115 0.553 0.239 0.818 0.366 0.046 0.023 0.066 0.077 0.043 0.122-0.015 0.032-0.048 0.051-0.083 0.051v-0.002z"></path>
<path fill="#fff" style="fill: var(--color1, #fff)" d="M17.339 0.263c0 0-0.008 0-0.013 0l-0.153-0.022h-0.017l-0.039-0.009c-0.091-0.015-0.188-0.028-0.267-0.034l-0.046-0.004c-0.052-0.004-0.091-0.047-0.087-0.096 0.004-0.051 0.050-0.088 0.099-0.084l0.050 0.004c0.083 0.007 0.184 0.021 0.271 0.034l0.048 0.007v0.092l0.015-0.090 0.145 0.021c0.050 0.007 0.089 0.053 0.081 0.101-0.006 0.045-0.044 0.079-0.091 0.079l0.004 0.002z"></path>
<path fill="#fff" style="fill: var(--color1, #fff)" d="M16.913 0.195h-0.006l-0.346-0.013c-0.052 0-0.093-0.041-0.093-0.092s0.043-0.090 0.093-0.090l0.36 0.013c0.052 0.004 0.091 0.047 0.087 0.098-0.004 0.047-0.044 0.084-0.093 0.084h-0.002z"></path>
<path fill="#fff" style="fill: var(--color1, #fff)" d="M14.745 0.261l-0.029-0.178 0.145-0.021 0.031 0.086-0.015-0.090 0.039-0.006c0.095-0.015 0.195-0.028 0.278-0.036 0.064-0.006 0.124-0.009 0.186-0.011 0.052-0.006 0.095 0.037 0.097 0.086 0 0.051-0.039 0.092-0.089 0.094-0.058 0-0.114 0.006-0.176 0.009-0.079 0.008-0.176 0.021-0.257 0.032l-0.046 0.008h-0.017l-0.149 0.024 0.004 0.002z"></path>
<path fill="#fff" style="fill: var(--color1, #fff)" d="M16.812 0.194c0 0-0.004 0-0.008 0-0.044-0.004-0.085-0.006-0.128-0.006-0.052 0-0.093-0.043-0.091-0.094 0-0.051 0.043-0.092 0.097-0.086 0.044 0 0.089 0.004 0.135 0.007 0.052 0.004 0.091 0.047 0.087 0.098-0.004 0.047-0.044 0.084-0.093 0.084v-0.004z"></path>
<path fill="#fff" style="fill: var(--color1, #fff)" d="M15.989 31.998h-0.261c-0.052 0-0.093-0.043-0.093-0.092 0-0.051 0.046-0.086 0.095-0.090h0.257c0.052 0 0.093 0.041 0.093 0.092s-0.043 0.090-0.093 0.090h0.002z"></path>
<path fill="#fff" style="fill: var(--color1, #fff)" d="M15.254 31.985c0 0-0.004 0-0.006 0-0.019 0-0.037-0.002-0.052-0.004-0.083-0.007-0.184-0.021-0.269-0.034l-0.209-0.032c-0.050-0.011-0.087-0.062-0.075-0.111s0.056-0.079 0.106-0.067l0.207 0.030c0.081 0.013 0.178 0.026 0.257 0.032l0.046 0.004c0.052 0.004 0.091 0.045 0.087 0.096-0.004 0.049-0.044 0.084-0.093 0.084v0.002z"></path>
<path fill="#fff" style="fill: var(--color1, #fff)" d="M16.551 0.182c-0.104 0-0.232 0-0.398 0-0.052 0-0.093-0.041-0.093-0.090 0-0.051 0.043-0.090 0.093-0.090 0.168 0 0.296 0 0.4 0.002 0.052 0 0.093 0.041 0.093 0.092 0 0.049-0.042 0.088-0.093 0.088l-0.002-0.002z"></path>
<path fill="#fff" style="fill: var(--color1, #fff)" d="M19.397 0.569l-0.083-0.017c-0.068-0.015-0.126-0.026-0.184-0.038s-0.122-0.024-0.184-0.036c-0.064-0.011-0.128-0.023-0.193-0.036l-0.133-0.023c-0.093-0.015-0.178-0.028-0.269-0.041l-0.072-0.009c-0.050-0.008-0.087-0.053-0.079-0.101s0.054-0.084 0.106-0.077l0.072 0.009c0.093 0.013 0.18 0.026 0.273 0.041l0.135 0.022c0.068 0.011 0.131 0.023 0.195 0.036 0.064 0.011 0.126 0.024 0.186 0.036 0.058 0.011 0.118 0.024 0.174 0.036l0.089 0.019-0.035 0.178h0.002z"></path>
<path fill="#fff" style="fill: var(--color1, #fff)" d="M15.73 0.182c-0.050 0-0.093-0.039-0.093-0.090s0.041-0.090 0.093-0.092h0.259c0.052 0 0.093 0.039 0.093 0.090s-0.043 0.090-0.093 0.090h-0.259v0.002z"></path>
<path fill="#fff" style="fill: var(--color1, #fff)" d="M15.204 0.191c-0.048 0-0.089-0.038-0.093-0.084-0.004-0.051 0.035-0.094 0.087-0.096 0.073-0.006 0.145-0.007 0.216-0.009h0.060c0.050 0 0.101 0.037 0.101 0.088s-0.035 0.090-0.085 0.092h-0.070c-0.070 0.002-0.139 0.006-0.209 0.009-0.002 0-0.004 0-0.006 0h-0.002z"></path>
<path fill="#fff" style="fill: var(--color1, #fff)" d="M12.655 0.57c-0.042 0-0.083-0.028-0.093-0.069-0.012-0.049 0.017-0.096 0.068-0.107h0.006l0.077-0.019c0.068-0.015 0.128-0.026 0.186-0.039 0.060-0.011 0.122-0.024 0.186-0.036s0.128-0.024 0.195-0.036l0.135-0.022c0.095-0.015 0.18-0.028 0.273-0.041l0.072-0.009c0.052-0.008 0.099 0.028 0.106 0.077s-0.029 0.096-0.079 0.101l-0.072 0.009c-0.091 0.013-0.176 0.026-0.269 0.041l-0.133 0.023c-0.068 0.011-0.13 0.023-0.193 0.036-0.062 0.011-0.126 0.024-0.184 0.036s-0.116 0.024-0.172 0.036l-0.087 0.019c0 0-0.014 0.002-0.021 0.002z"></path>
<path fill="#fff" style="fill: var(--color1, #fff)" d="M14.427 0.291c-0.046 0-0.087-0.034-0.093-0.081-0.006-0.049 0.031-0.094 0.081-0.101 0.075-0.009 0.153-0.019 0.234-0.030l0.106-0.017c0.114-0.017 0.245-0.037 0.39-0.049l0.048-0.004c0.052-0.002 0.097 0.034 0.099 0.084 0.004 0.051-0.035 0.094-0.087 0.096l-0.046 0.004c-0.139 0.011-0.259 0.030-0.377 0.047l-0.108 0.017c-0.083 0.011-0.162 0.023-0.24 0.030-0.004 0-0.008 0-0.012 0l0.004 0.004z"></path>
<path fill="#fff" style="fill: var(--color1, #fff)" d="M17.642 0.291c0 0-0.008 0-0.012 0-0.077-0.009-0.157-0.019-0.24-0.030l-0.108-0.017c-0.116-0.019-0.238-0.038-0.377-0.047-0.052-0.004-0.089-0.047-0.085-0.098 0.004-0.049 0.048-0.086 0.101-0.083 0.145 0.011 0.276 0.032 0.39 0.049l0.106 0.017c0.081 0.011 0.158 0.021 0.234 0.030 0.050 0.006 0.087 0.051 0.081 0.101-0.006 0.047-0.046 0.081-0.093 0.081l0.002-0.004z"></path>
<path fill="#fff" style="fill: var(--color1, #fff)" d="M19.419 0.571c0 0-0.013 0-0.021-0.002l-0.095-0.021c-0.126-0.026-0.249-0.051-0.373-0.073s-0.247-0.043-0.371-0.064l-0.085-0.013c-0.050-0.008-0.085-0.054-0.077-0.103s0.056-0.083 0.106-0.075l0.085 0.013c0.126 0.021 0.249 0.041 0.375 0.064s0.251 0.049 0.379 0.075l0.095 0.021c0.050 0.011 0.081 0.060 0.070 0.109-0.010 0.041-0.048 0.071-0.091 0.071l0.004-0.002z"></path>
<path fill="#fff" style="fill: var(--color1, #fff)" d="M18.294 31.808c-0.046 0-0.085-0.032-0.093-0.079-0.008-0.049 0.029-0.096 0.079-0.103l0.072-0.009c0.091-0.013 0.176-0.026 0.269-0.041 0.044-0.007 0.089-0.015 0.133-0.023 0.068-0.011 0.13-0.023 0.193-0.036 0.062-0.011 0.126-0.024 0.184-0.036s0.116-0.024 0.172-0.036l0.029-0.006 0.043 0.084-0.021-0.088c0 0 0.046-0.009 0.048-0.011 0.052-0.009 0.101 0.023 0.11 0.071s-0.023 0.096-0.073 0.105l-0.043 0.009-0.023 0.006-0.029 0.006c-0.056 0.011-0.116 0.024-0.174 0.036-0.060 0.011-0.122 0.024-0.186 0.036s-0.128 0.024-0.195 0.036c-0.044 0.007-0.091 0.015-0.135 0.023-0.095 0.015-0.18 0.028-0.273 0.041l-0.072 0.009c0 0-0.010 0-0.014 0l-0.002 0.006z"></path>
<path fill="#fff" style="fill: var(--color1, #fff)" d="M16.68 31.993c-0.050 0-0.091-0.039-0.093-0.088 0-0.051 0.039-0.092 0.089-0.094 0.058-0.002 0.114-0.006 0.174-0.009 0.079-0.007 0.176-0.021 0.257-0.032l0.213-0.032 0.017 0.088 0.010 0.090-0.211 0.032c-0.087 0.013-0.187 0.026-0.271 0.034-0.064 0.006-0.124 0.009-0.186 0.011 0 0-0.002 0-0.004 0h0.004z"></path>
<path fill="#fff" style="fill: var(--color1, #fff)" d="M16.077 31.998c-0.052 0-0.093-0.041-0.093-0.090s0.043-0.090 0.093-0.090h0.122c0.035 0 0.102 0 0.137 0 0.048-0.006 0.095 0.039 0.095 0.090s-0.041 0.090-0.093 0.092c-0.035 0-0.102 0-0.139 0h-0.122v-0.002z"></path>
<path fill="#fff" style="fill: var(--color1, #fff)" d="M13.775 31.808c0 0-0.008 0-0.014 0l-0.072-0.009c-0.093-0.013-0.18-0.026-0.273-0.041-0.044-0.007-0.091-0.015-0.135-0.023-0.068-0.011-0.132-0.023-0.195-0.036-0.064-0.011-0.126-0.024-0.186-0.036-0.058-0.011-0.118-0.024-0.174-0.036l-0.029-0.006-0.023-0.006-0.041-0.009c-0.050-0.011-0.083-0.058-0.072-0.107 0.010-0.049 0.060-0.081 0.108-0.071 0.002 0 0.046 0.009 0.048 0.011l0.048 0.009c0.056 0.011 0.114 0.024 0.172 0.036s0.122 0.024 0.184 0.036c0.064 0.011 0.128 0.023 0.193 0.036 0.044 0.007 0.089 0.015 0.133 0.023 0.093 0.015 0.178 0.028 0.269 0.041l0.072 0.009c0.050 0.007 0.087 0.053 0.079 0.103-0.006 0.045-0.046 0.079-0.093 0.079l-0.002-0.004z"></path>
<path fill="#fff" style="fill: var(--color1, #fff)" d="M15.154 31.983c0 0-0.006 0-0.008 0-0.147-0.011-0.276-0.032-0.39-0.049l-0.104-0.017c-0.081-0.011-0.158-0.021-0.234-0.030-0.050-0.006-0.087-0.051-0.081-0.101 0.006-0.049 0.052-0.084 0.104-0.079 0.077 0.009 0.157 0.019 0.24 0.030l0.106 0.017c0.118 0.019 0.238 0.038 0.377 0.049 0.052 0.004 0.089 0.047 0.085 0.098-0.004 0.047-0.044 0.083-0.093 0.083h-0.002z"></path>
<path fill="#fff" style="fill: var(--color1, #fff)" d="M16.868 31.986c-0.048 0-0.091-0.038-0.093-0.084-0.004-0.051 0.037-0.092 0.087-0.096l0.046-0.004c0.139-0.011 0.259-0.030 0.377-0.049l0.106-0.017c0.083-0.011 0.162-0.023 0.24-0.030 0.050-0.006 0.097 0.030 0.104 0.079 0.006 0.049-0.031 0.094-0.081 0.101-0.075 0.009-0.153 0.019-0.234 0.030l-0.104 0.017c-0.116 0.019-0.245 0.037-0.39 0.049l-0.048 0.004c0 0-0.004 0-0.006 0h-0.004z"></path>
<path fill="#fff" style="fill: var(--color1, #fff)" d="M18.201 31.821c-0.046 0-0.085-0.034-0.093-0.079-0.008-0.049 0.029-0.096 0.079-0.101l0.093-0.013c0.050-0.008 0.099 0.028 0.106 0.077s-0.029 0.096-0.079 0.101l-0.093 0.013c0 0-0.008 0-0.013 0v0.002z"></path>
<path fill="#fff" style="fill: var(--color1, #fff)" d="M12.361 0.638c-0.042 0-0.079-0.028-0.091-0.069-0.012-0.049 0.017-0.098 0.068-0.109 0.097-0.023 0.193-0.045 0.29-0.068 0.050-0.011 0.101 0.019 0.112 0.068s-0.019 0.098-0.070 0.109c-0.095 0.021-0.189 0.043-0.286 0.066-0.008 0-0.015 0.002-0.023 0.002v0.002z"></path>
<path fill="#fff" style="fill: var(--color1, #fff)" d="M19.705 0.638c0 0-0.015 0-0.023-0.002-0.097-0.022-0.191-0.045-0.286-0.066-0.050-0.011-0.081-0.060-0.070-0.109s0.062-0.079 0.112-0.068c0.097 0.021 0.191 0.043 0.29 0.068 0.050 0.011 0.081 0.062 0.068 0.109-0.010 0.041-0.048 0.069-0.091 0.069v-0.002z"></path>
<path fill="#fff" style="fill: var(--color1, #fff)" d="M9.127 1.796c-0.035 0-0.068-0.019-0.083-0.051-0.023-0.045-0.004-0.1 0.043-0.122 0.265-0.128 0.54-0.25 0.818-0.366 0.271-0.113 0.549-0.22 0.824-0.318 0.271-0.096 0.545-0.186 0.816-0.267 0.267-0.081 0.534-0.152 0.793-0.216 0.050-0.013 0.101 0.017 0.114 0.066 0.012 0.049-0.017 0.098-0.068 0.111-0.257 0.062-0.52 0.133-0.783 0.212-0.269 0.081-0.54 0.169-0.807 0.265-0.273 0.098-0.547 0.203-0.816 0.314-0.275 0.115-0.546 0.235-0.809 0.361-0.014 0.006-0.027 0.009-0.041 0.009l-0.002 0.002z"></path>
<path fill="#fff" style="fill: var(--color1, #fff)" d="M6.11 3.686c-0.027 0-0.054-0.011-0.072-0.034-0.033-0.039-0.027-0.096 0.014-0.128 0.466-0.37 0.959-0.718 1.464-1.035 0.505-0.316 1.035-0.607 1.571-0.866 0.046-0.023 0.103-0.004 0.126 0.041s0.004 0.1-0.043 0.122c-0.532 0.256-1.054 0.543-1.553 0.855-0.501 0.314-0.987 0.658-1.447 1.024-0.017 0.013-0.039 0.021-0.060 0.021z"></path>
<path fill="#fff" style="fill: var(--color1, #fff)" d="M25.96 3.686c-0.021 0-0.043-0.007-0.060-0.021-0.46-0.366-0.948-0.71-1.447-1.024-0.499-0.312-1.021-0.601-1.553-0.855-0.046-0.023-0.066-0.077-0.043-0.122s0.079-0.064 0.126-0.041c0.538 0.257 1.066 0.549 1.571 0.866 0.505 0.316 0.998 0.665 1.464 1.035 0.041 0.032 0.046 0.088 0.014 0.128-0.019 0.023-0.044 0.034-0.072 0.034z"></path>
<path fill="#fff" style="fill: var(--color1, #fff)" d="M3.588 6.198c-0.019 0-0.041-0.006-0.058-0.019-0.041-0.030-0.048-0.088-0.015-0.128 0.747-0.932 1.6-1.783 2.534-2.527 0.041-0.032 0.099-0.026 0.132 0.013s0.027 0.096-0.014 0.128c-0.925 0.735-1.768 1.574-2.505 2.497-0.017 0.023-0.046 0.036-0.074 0.036z"></path>
<path fill="#fff" style="fill: var(--color1, #fff)" d="M28.482 6.198c-0.027 0-0.056-0.011-0.073-0.036-0.737-0.923-1.58-1.762-2.505-2.497-0.041-0.032-0.046-0.088-0.013-0.128s0.091-0.045 0.131-0.013c0.936 0.744 1.789 1.593 2.536 2.527 0.031 0.039 0.025 0.096-0.017 0.128-0.017 0.013-0.037 0.019-0.058 0.019z"></path>
<path fill="#fff" style="fill: var(--color1, #fff)" d="M1.692 9.206c-0.014 0-0.027-0.004-0.039-0.009-0.046-0.021-0.066-0.075-0.044-0.12 0.52-1.075 1.161-2.093 1.907-3.025 0.031-0.039 0.091-0.047 0.132-0.017s0.048 0.088 0.017 0.128c-0.737 0.923-1.371 1.928-1.886 2.991-0.015 0.032-0.050 0.053-0.085 0.053h-0.002z"></path>
<path fill="#fff" style="fill: var(--color1, #fff)" d="M30.377 9.206c-0.035 0-0.070-0.019-0.085-0.053-0.513-1.063-1.147-2.069-1.886-2.991-0.031-0.039-0.025-0.096 0.017-0.128 0.041-0.030 0.099-0.024 0.131 0.017 0.747 0.932 1.387 1.95 1.907 3.025 0.021 0.045 0 0.1-0.044 0.12-0.014 0.006-0.027 0.009-0.039 0.009h-0.002z"></path>
<path fill="#fff" style="fill: var(--color1, #fff)" d="M0.514 12.56c0 0-0.014 0-0.021-0.002-0.050-0.011-0.081-0.060-0.072-0.109 0.267-1.163 0.665-2.298 1.184-3.372 0.021-0.045 0.077-0.066 0.124-0.043 0.046 0.021 0.066 0.075 0.044 0.12-0.513 1.063-0.907 2.183-1.17 3.335-0.010 0.041-0.048 0.071-0.091 0.071h0.002z"></path>
<path fill="#fff" style="fill: var(--color1, #fff)" d="M31.555 12.559c-0.043 0-0.081-0.028-0.091-0.071-0.263-1.15-0.658-2.271-1.17-3.335-0.021-0.045 0-0.1 0.044-0.12 0.046-0.021 0.102 0 0.124 0.043 0.518 1.075 0.917 2.21 1.184 3.372 0.012 0.049-0.021 0.098-0.072 0.109-0.008 0-0.013 0.002-0.019 0.002z"></path>
<path fill="#fff" style="fill: var(--color1, #fff)" d="M0.116 16.090c-0.052 0-0.093-0.041-0.093-0.090 0-1.193 0.135-2.386 0.4-3.549 0.012-0.049 0.062-0.079 0.112-0.070 0.050 0.011 0.081 0.060 0.072 0.109-0.263 1.15-0.396 2.332-0.396 3.51 0 0.051-0.043 0.090-0.093 0.090h-0.002z"></path>
<path fill="#fff" style="fill: var(--color1, #fff)" d="M31.951 16.091c-0.052 0-0.093-0.041-0.093-0.090 0-1.18-0.133-2.36-0.396-3.51-0.012-0.049 0.021-0.098 0.072-0.109s0.1 0.021 0.112 0.070c0.267 1.163 0.4 2.356 0.4 3.549 0 0.051-0.043 0.090-0.093 0.090h-0.002z"></path>
<path fill="#fff" style="fill: var(--color1, #fff)" d="M0.514 19.619c-0.043 0-0.081-0.028-0.091-0.071-0.267-1.163-0.4-2.358-0.4-3.549 0-0.051 0.043-0.090 0.093-0.090s0.093 0.041 0.093 0.090c0 1.18 0.133 2.36 0.396 3.51 0.012 0.049-0.021 0.098-0.072 0.109-0.008 0-0.014 0.002-0.019 0.002z"></path>
<path fill="#fff" style="fill: var(--color1, #fff)" d="M31.555 19.619c0 0-0.014 0-0.021-0.002-0.050-0.011-0.081-0.060-0.072-0.109 0.263-1.15 0.396-2.332 0.396-3.51 0-0.051 0.042-0.090 0.093-0.090s0.093 0.041 0.093 0.090c0 1.193-0.135 2.388-0.4 3.549-0.010 0.041-0.048 0.071-0.091 0.071h0.002z"></path>
<path fill="#fff" style="fill: var(--color1, #fff)" d="M1.693 22.972c-0.035 0-0.070-0.019-0.085-0.053-0.518-1.075-0.917-2.21-1.184-3.372-0.012-0.049 0.021-0.098 0.072-0.109s0.101 0.021 0.112 0.070c0.263 1.15 0.658 2.271 1.17 3.335 0.021 0.045 0 0.1-0.044 0.12-0.014 0.006-0.027 0.008-0.039 0.008l-0.002 0.002z"></path>
<path fill="#fff" style="fill: var(--color1, #fff)" d="M30.377 22.972c-0.013 0-0.027-0.002-0.039-0.008-0.046-0.021-0.066-0.075-0.044-0.12 0.513-1.063 0.907-2.183 1.17-3.335 0.012-0.049 0.062-0.079 0.112-0.070 0.050 0.011 0.081 0.058 0.072 0.109-0.267 1.163-0.665 2.298-1.184 3.372-0.015 0.032-0.050 0.053-0.085 0.053l-0.002-0.002z"></path>
<path fill="#fff" style="fill: var(--color1, #fff)" d="M3.588 25.981c-0.027 0-0.056-0.011-0.074-0.036-0.747-0.932-1.389-1.95-1.907-3.025-0.021-0.045 0-0.1 0.044-0.12 0.046-0.021 0.103 0 0.124 0.043 0.513 1.062 1.147 2.069 1.886 2.991 0.031 0.039 0.025 0.096-0.017 0.128-0.017 0.013-0.037 0.019-0.058 0.019h0.002z"></path>
<path fill="#fff" style="fill: var(--color1, #fff)" d="M28.48 25.981c-0.019 0-0.041-0.006-0.058-0.019-0.041-0.030-0.048-0.088-0.017-0.128 0.737-0.922 1.372-1.928 1.886-2.991 0.021-0.045 0.077-0.066 0.124-0.043 0.046 0.021 0.066 0.075 0.044 0.12-0.518 1.075-1.161 2.093-1.907 3.025-0.019 0.023-0.046 0.036-0.073 0.036h0.002z"></path>
<path fill="#fff" style="fill: var(--color1, #fff)" d="M6.109 28.492c-0.021 0-0.043-0.007-0.060-0.021-0.936-0.744-1.789-1.593-2.534-2.527-0.031-0.039-0.025-0.096 0.015-0.128 0.041-0.030 0.099-0.023 0.132 0.015 0.737 0.922 1.58 1.762 2.505 2.497 0.041 0.032 0.046 0.088 0.014 0.128-0.019 0.023-0.045 0.034-0.072 0.034v0.002z"></path>
<path fill="#fff" style="fill: var(--color1, #fff)" d="M25.962 28.492c-0.027 0-0.054-0.011-0.072-0.034-0.033-0.039-0.027-0.096 0.013-0.128 0.925-0.735 1.768-1.576 2.505-2.497 0.031-0.039 0.091-0.047 0.131-0.015 0.041 0.030 0.048 0.088 0.017 0.128-0.747 0.932-1.6 1.783-2.536 2.527-0.017 0.013-0.039 0.021-0.060 0.021v-0.002z"></path>
<path fill="#fff" style="fill: var(--color1, #fff)" d="M9.127 30.382c-0.014 0-0.027-0.004-0.041-0.009-0.538-0.259-1.066-0.55-1.571-0.866-0.507-0.317-0.998-0.665-1.464-1.035-0.041-0.032-0.046-0.088-0.014-0.128s0.091-0.045 0.132-0.013c0.46 0.366 0.948 0.71 1.447 1.024 0.499 0.312 1.021 0.601 1.553 0.855 0.046 0.023 0.066 0.077 0.043 0.122-0.015 0.032-0.050 0.051-0.083 0.051h-0.002z"></path>
<path fill="#fff" style="fill: var(--color1, #fff)" d="M22.941 30.382c-0.035 0-0.068-0.019-0.083-0.051-0.023-0.045-0.004-0.099 0.043-0.122 0.532-0.256 1.054-0.543 1.553-0.855 0.499-0.314 0.987-0.658 1.447-1.024 0.041-0.032 0.099-0.026 0.132 0.013s0.027 0.096-0.014 0.128c-0.466 0.37-0.959 0.72-1.464 1.035s-1.033 0.607-1.571 0.866c-0.014 0.006-0.027 0.009-0.041 0.009h-0.002z"></path>
<path fill="#fff" style="fill: var(--color1, #fff)" d="M12.361 31.54c0 0-0.015 0-0.023-0.002-0.259-0.064-0.526-0.135-0.793-0.214-0.273-0.081-0.547-0.171-0.816-0.267-0.275-0.098-0.553-0.205-0.824-0.317-0.279-0.116-0.553-0.239-0.818-0.364-0.046-0.023-0.066-0.077-0.043-0.122s0.079-0.064 0.126-0.041c0.261 0.126 0.534 0.246 0.809 0.361 0.269 0.111 0.543 0.218 0.816 0.314 0.267 0.094 0.538 0.184 0.807 0.265 0.263 0.079 0.528 0.15 0.783 0.212 0.050 0.011 0.081 0.062 0.068 0.111-0.010 0.041-0.048 0.070-0.091 0.070v-0.004z"></path>
<path fill="#fff" style="fill: var(--color1, #fff)" d="M19.706 31.54c-0.043 0-0.079-0.028-0.091-0.070-0.012-0.049 0.017-0.098 0.068-0.111 0.257-0.062 0.52-0.133 0.784-0.212 0.269-0.081 0.542-0.169 0.807-0.265 0.273-0.096 0.546-0.203 0.816-0.314 0.275-0.115 0.547-0.237 0.809-0.361 0.046-0.023 0.102-0.004 0.126 0.041s0.004 0.1-0.043 0.122c-0.265 0.126-0.54 0.25-0.818 0.364-0.273 0.113-0.549 0.22-0.824 0.317-0.269 0.096-0.544 0.186-0.816 0.267-0.267 0.079-0.534 0.152-0.793 0.214-0.008 0-0.015 0.002-0.023 0.002v0.004z"></path>
<path fill="#fff" style="fill: var(--color1, #fff)" d="M12.65 31.607c0 0-0.014 0-0.021-0.002-0.095-0.021-0.191-0.043-0.29-0.068-0.050-0.011-0.081-0.062-0.068-0.109 0.012-0.049 0.062-0.079 0.114-0.066 0.097 0.023 0.191 0.045 0.286 0.066 0.050 0.011 0.081 0.060 0.070 0.109-0.010 0.041-0.048 0.071-0.091 0.071v-0.002z"></path>
<path fill="#fff" style="fill: var(--color1, #fff)" d="M19.419 31.607c-0.042 0-0.081-0.028-0.091-0.071-0.012-0.049 0.019-0.098 0.070-0.109 0.095-0.021 0.189-0.043 0.286-0.066 0.050-0.011 0.101 0.017 0.114 0.066 0.012 0.049-0.017 0.098-0.068 0.109-0.097 0.023-0.193 0.045-0.29 0.068-0.008 0-0.014 0.002-0.021 0.002v0.002z"></path>
<path fill="#fff" style="fill: var(--color1, #fff)" d="M13.581 0.4c-0.044 0-0.083-0.030-0.091-0.073-0.010-0.049 0.023-0.096 0.075-0.105 0.019-0.004 0.052-0.009 0.087-0.015s0.070-0.011 0.101-0.015l0.021 0.088 0.012 0.090c-0.037 0.006-0.071 0.009-0.104 0.015s-0.066 0.011-0.083 0.013c-0.006 0-0.012 0-0.017 0v0.002z"></path>
<path fill="#fff" style="fill: var(--color1, #fff)" d="M18.302 31.808c-0.046 0-0.089-0.032-0.097-0.077-0.008-0.049 0.023-0.096 0.073-0.101l0.106-0.015c0.033-0.006 0.066-0.011 0.083-0.013 0.050-0.009 0.099 0.023 0.108 0.071s-0.023 0.096-0.075 0.105c-0.019 0.004-0.052 0.009-0.087 0.015l-0.101 0.015c0 0-0.010 0-0.013 0h0.002z"></path>
<path fill="#fff" style="fill: var(--color1, #fff)" d="M13.581 31.778c0 0-0.010 0-0.014 0-0.043-0.006-0.118-0.019-0.207-0.034-0.087-0.015-0.186-0.034-0.292-0.054-0.104-0.021-0.217-0.045-0.335-0.069-0.116-0.026-0.238-0.054-0.36-0.084-0.050-0.013-0.079-0.062-0.068-0.111 0.014-0.049 0.064-0.079 0.114-0.066 0.122 0.030 0.24 0.058 0.356 0.084 0.114 0.026 0.224 0.049 0.329 0.069s0.201 0.039 0.288 0.053c0.085 0.015 0.161 0.026 0.203 0.032 0.050 0.007 0.085 0.054 0.077 0.103-0.008 0.045-0.046 0.077-0.093 0.077z"></path>
<path fill="#fff" style="fill: var(--color1, #fff)" d="M13.76 31.808l-0.108-0.017c-0.035-0.006-0.070-0.011-0.087-0.015-0.050-0.009-0.083-0.056-0.075-0.105 0.010-0.049 0.058-0.083 0.108-0.071 0.017 0.004 0.050 0.008 0.083 0.013l0.097 0.015-0.006 0.090-0.013 0.090h0.002z"></path>
<path fill="#fff" style="fill: var(--color1, #fff)" d="M19.427 0.638c0 0-0.015 0-0.025-0.004-0.118-0.030-0.234-0.060-0.35-0.086s-0.23-0.051-0.344-0.073c-0.114-0.023-0.228-0.043-0.342-0.064-0.114-0.019-0.228-0.037-0.342-0.054-0.050-0.008-0.087-0.054-0.079-0.103s0.054-0.084 0.106-0.077c0.116 0.017 0.232 0.036 0.348 0.054 0.116 0.021 0.232 0.041 0.348 0.064s0.232 0.049 0.35 0.075c0.118 0.026 0.236 0.056 0.356 0.088 0.050 0.013 0.079 0.062 0.066 0.111-0.012 0.041-0.048 0.068-0.091 0.068v0.002z"></path>
<path fill="#fff" style="fill: var(--color1, #fff)" d="M18.63 0.638c-0.010 0-0.021 0-0.031-0.006-0.091-0.030-0.178-0.060-0.267-0.086s-0.176-0.051-0.263-0.073c-0.087-0.023-0.174-0.043-0.261-0.064-0.087-0.019-0.174-0.038-0.261-0.054-0.050-0.009-0.083-0.056-0.073-0.107 0.010-0.049 0.058-0.081 0.11-0.071 0.089 0.017 0.178 0.036 0.267 0.054 0.089 0.021 0.178 0.041 0.267 0.064s0.18 0.049 0.269 0.075c0.091 0.026 0.182 0.056 0.273 0.088 0.048 0.017 0.073 0.068 0.056 0.116-0.014 0.037-0.050 0.060-0.089 0.060l0.004 0.004z"></path>
<path fill="#fff" style="fill: var(--color1, #fff)" d="M17.438 0.638c-0.017 0-0.035-0.004-0.050-0.015-0.048-0.030-0.095-0.058-0.141-0.084s-0.093-0.051-0.139-0.071c-0.046-0.023-0.093-0.043-0.137-0.062-0.046-0.019-0.093-0.036-0.139-0.053-0.048-0.017-0.073-0.069-0.056-0.116s0.072-0.071 0.12-0.054c0.050 0.017 0.099 0.036 0.147 0.056s0.099 0.043 0.147 0.066c0.048 0.024 0.099 0.049 0.149 0.077s0.101 0.058 0.151 0.090c0.042 0.028 0.056 0.083 0.027 0.126-0.017 0.026-0.048 0.041-0.077 0.041z"></path>
<path fill="#fff" style="fill: var(--color1, #fff)" d="M15.203 0.358c-0.039 0-0.073-0.023-0.087-0.060-0.017-0.047 0.008-0.099 0.056-0.116 0.050-0.017 0.099-0.034 0.151-0.049l0.029-0.008c0.039-0.011 0.079-0.022 0.122-0.039l0.039-0.015c0.046-0.019 0.101-0.041 0.162-0.054 0.077-0.015 0.16-0.017 0.311-0.017 0.052 0 0.093 0.041 0.093 0.090 0 0.051-0.043 0.090-0.093 0.090-0.151 0-0.218 0-0.275 0.013-0.046 0.009-0.089 0.026-0.129 0.043l-0.043 0.017c-0.048 0.019-0.095 0.032-0.137 0.045l-0.027 0.008c-0.048 0.015-0.095 0.030-0.141 0.045-0.010 0.004-0.021 0.006-0.031 0.006v0.002z"></path>
<path fill="#fff" style="fill: var(--color1, #fff)" d="M14.629 0.638c-0.031 0-0.060-0.015-0.077-0.041-0.029-0.041-0.015-0.098 0.027-0.126 0.050-0.032 0.1-0.062 0.151-0.090s0.099-0.053 0.149-0.077c0.050-0.024 0.099-0.045 0.149-0.066 0.048-0.021 0.099-0.039 0.147-0.056s0.102 0.008 0.12 0.054c0.017 0.047-0.008 0.099-0.056 0.116-0.046 0.017-0.093 0.034-0.139 0.053s-0.091 0.039-0.137 0.062c-0.046 0.023-0.093 0.047-0.139 0.071-0.046 0.026-0.095 0.054-0.141 0.084-0.015 0.009-0.033 0.015-0.050 0.015h-0.002z"></path>
<path fill="#fff" style="fill: var(--color1, #fff)" d="M13.437 0.638c-0.039 0-0.075-0.022-0.087-0.060-0.017-0.047 0.008-0.099 0.056-0.116 0.093-0.032 0.184-0.060 0.273-0.088s0.18-0.053 0.269-0.075c0.089-0.023 0.178-0.045 0.267-0.064 0.089-0.021 0.178-0.038 0.267-0.054 0.052-0.009 0.101 0.022 0.11 0.071s-0.023 0.098-0.073 0.107c-0.087 0.017-0.174 0.034-0.261 0.054-0.087 0.019-0.174 0.041-0.261 0.064s-0.174 0.047-0.263 0.073c-0.089 0.026-0.176 0.054-0.267 0.086-0.010 0.004-0.021 0.006-0.031 0.006l0.002-0.004z"></path>
<path fill="#fff" style="fill: var(--color1, #fff)" d="M12.642 0.638c-0.041 0-0.079-0.026-0.091-0.068-0.014-0.049 0.015-0.098 0.066-0.111 0.12-0.032 0.238-0.060 0.356-0.088 0.118-0.026 0.234-0.053 0.35-0.075s0.232-0.045 0.348-0.064c0.116-0.021 0.232-0.038 0.348-0.054 0.050-0.008 0.099 0.026 0.106 0.077 0.008 0.049-0.027 0.096-0.079 0.103-0.114 0.017-0.228 0.036-0.342 0.054s-0.228 0.041-0.342 0.064c-0.114 0.023-0.228 0.047-0.344 0.073s-0.232 0.056-0.35 0.086c-0.008 0.002-0.015 0.004-0.025 0.004v-0.002z"></path>
<path fill="#fff" style="fill: var(--color1, #fff)" d="M14.629 31.539c-0.017 0-0.035-0.006-0.050-0.015-0.101-0.064-0.205-0.137-0.31-0.22-0.106-0.083-0.213-0.175-0.317-0.271-0.106-0.1-0.213-0.207-0.319-0.321-0.106-0.116-0.213-0.241-0.315-0.368-0.031-0.039-0.023-0.096 0.017-0.128 0.041-0.030 0.099-0.023 0.132 0.017 0.099 0.124 0.203 0.244 0.307 0.359 0.103 0.111 0.205 0.214 0.31 0.31 0.101 0.094 0.203 0.18 0.306 0.261 0.099 0.077 0.197 0.148 0.294 0.209 0.043 0.028 0.056 0.085 0.027 0.126-0.017 0.026-0.048 0.041-0.077 0.041h-0.004z"></path>
<path fill="#fff" style="fill: var(--color1, #fff)" d="M12.398 0.642c-0.015 0-0.025 0-0.033 0-0.006 0-0.023-0.002-0.029-0.004-0.025-0.007-0.048-0.024-0.060-0.047s-0.013-0.051-0.004-0.075c0.017-0.045 0.070-0.068 0.116-0.053h0.010c0.052 0 0.093 0.039 0.093 0.090s-0.043 0.090-0.093 0.090v-0.002z"></path>
<path fill="#fff" style="fill: var(--color1, #fff)" d="M19.669 0.642c-0.052 0-0.093-0.041-0.093-0.090s0.043-0.090 0.093-0.090h0.014c0.044-0.011 0.093 0.011 0.11 0.054 0.010 0.024 0.008 0.051-0.004 0.075-0.012 0.022-0.035 0.041-0.060 0.049-0.006 0-0.023 0.004-0.029 0.004s-0.017 0-0.031 0v-0.002z"></path>
<path fill="#fff" style="fill: var(--color1, #fff)" d="M22.415 1.796c-0.015 0-0.029-0.004-0.044-0.011-0.242-0.126-0.493-0.246-0.747-0.361-0.248-0.111-0.501-0.216-0.753-0.314-0.248-0.096-0.497-0.184-0.745-0.265-0.244-0.079-0.487-0.15-0.724-0.212-0.050-0.013-0.079-0.062-0.066-0.111s0.066-0.077 0.114-0.064c0.24 0.062 0.487 0.135 0.735 0.214 0.251 0.081 0.505 0.171 0.754 0.269 0.255 0.098 0.513 0.205 0.762 0.318 0.257 0.115 0.511 0.239 0.756 0.366 0.044 0.024 0.062 0.079 0.039 0.122-0.017 0.030-0.048 0.047-0.083 0.047v0.002z"></path>
<path fill="#fff" style="fill: var(--color1, #fff)" d="M20.918 1.796c-0.019 0-0.037-0.006-0.054-0.017-0.184-0.126-0.375-0.246-0.569-0.361-0.19-0.111-0.383-0.216-0.575-0.312-0.19-0.096-0.379-0.184-0.569-0.263-0.186-0.079-0.371-0.15-0.551-0.21-0.048-0.017-0.073-0.068-0.058-0.117 0.017-0.047 0.070-0.071 0.12-0.054 0.184 0.064 0.373 0.135 0.565 0.216s0.387 0.171 0.58 0.269c0.195 0.098 0.393 0.205 0.584 0.319 0.197 0.116 0.393 0.239 0.58 0.366 0.043 0.028 0.052 0.085 0.023 0.126-0.017 0.024-0.046 0.039-0.077 0.039v-0.002z"></path>
<path fill="#fff" style="fill: var(--color1, #fff)" d="M18.676 1.796c-0.027 0-0.056-0.011-0.073-0.036-0.101-0.126-0.203-0.246-0.308-0.359-0.101-0.109-0.205-0.214-0.31-0.31-0.101-0.094-0.203-0.182-0.306-0.261-0.099-0.077-0.197-0.147-0.294-0.209-0.043-0.026-0.056-0.083-0.027-0.126 0.029-0.041 0.085-0.054 0.13-0.026 0.101 0.064 0.205 0.137 0.31 0.22 0.106 0.083 0.213 0.173 0.317 0.271 0.106 0.1 0.215 0.207 0.319 0.321 0.106 0.117 0.213 0.24 0.315 0.368 0.031 0.039 0.023 0.096-0.017 0.128-0.017 0.013-0.037 0.019-0.058 0.019h0.002z"></path>
<path fill="#fff" style="fill: var(--color1, #fff)" d="M13.389 1.796c-0.019 0-0.041-0.006-0.058-0.019-0.041-0.030-0.048-0.088-0.017-0.128 0.103-0.128 0.209-0.252 0.315-0.368 0.104-0.113 0.213-0.222 0.319-0.321 0.104-0.098 0.211-0.188 0.317-0.271 0.104-0.081 0.209-0.154 0.31-0.22 0.043-0.028 0.101-0.015 0.13 0.026s0.015 0.098-0.027 0.126c-0.097 0.062-0.195 0.132-0.294 0.209-0.101 0.079-0.203 0.167-0.304 0.261-0.102 0.096-0.207 0.201-0.31 0.31-0.104 0.113-0.207 0.233-0.308 0.359-0.019 0.023-0.046 0.036-0.073 0.036z"></path>
<path fill="#fff" style="fill: var(--color1, #fff)" d="M11.15 1.796c-0.029 0-0.058-0.013-0.077-0.039-0.029-0.041-0.019-0.098 0.023-0.126 0.188-0.128 0.383-0.252 0.58-0.366 0.191-0.113 0.389-0.22 0.584-0.319 0.191-0.098 0.387-0.188 0.58-0.269 0.19-0.081 0.379-0.152 0.565-0.216 0.048-0.017 0.103 0.008 0.12 0.055s-0.008 0.1-0.056 0.117c-0.18 0.062-0.366 0.133-0.551 0.21-0.188 0.079-0.379 0.169-0.569 0.263-0.191 0.096-0.385 0.201-0.574 0.312-0.193 0.113-0.385 0.235-0.569 0.361-0.015 0.011-0.035 0.017-0.054 0.017l-0.002 0.002z"></path>
<path fill="#fff" style="fill: var(--color1, #fff)" d="M9.652 1.796c-0.033 0-0.066-0.017-0.083-0.047-0.025-0.045-0.008-0.1 0.039-0.122 0.246-0.128 0.499-0.25 0.756-0.366 0.251-0.113 0.507-0.22 0.762-0.318 0.25-0.096 0.505-0.186 0.754-0.267 0.246-0.079 0.493-0.152 0.735-0.214 0.050-0.013 0.101 0.015 0.114 0.064s-0.015 0.098-0.066 0.111c-0.238 0.062-0.48 0.133-0.723 0.212-0.248 0.081-0.497 0.169-0.745 0.265-0.252 0.098-0.505 0.203-0.752 0.314-0.253 0.115-0.505 0.235-0.747 0.361-0.014 0.008-0.029 0.011-0.044 0.011v-0.004z"></path>
<path fill="#fff" style="fill: var(--color1, #fff)" d="M25.203 3.686c-0.021 0-0.044-0.007-0.062-0.023-0.426-0.366-0.874-0.71-1.337-1.022-0.46-0.312-0.944-0.601-1.433-0.855-0.044-0.023-0.062-0.079-0.039-0.122 0.025-0.043 0.081-0.060 0.126-0.038 0.497 0.257 0.985 0.549 1.453 0.866s0.923 0.665 1.354 1.035c0.039 0.034 0.043 0.090 0.008 0.128-0.019 0.021-0.044 0.030-0.070 0.030z"></path>
<path fill="#fff" style="fill: var(--color1, #fff)" d="M23.053 3.686c-0.027 0-0.052-0.011-0.072-0.032-0.325-0.366-0.669-0.708-1.021-1.022-0.352-0.312-0.722-0.599-1.095-0.853-0.043-0.028-0.052-0.085-0.023-0.126s0.087-0.051 0.13-0.023c0.381 0.259 0.756 0.55 1.114 0.868s0.708 0.667 1.037 1.037c0.033 0.038 0.029 0.096-0.010 0.128-0.017 0.015-0.039 0.023-0.060 0.023z"></path>
<path fill="#fff" style="fill: var(--color1, #fff)" d="M19.832 3.687c-0.035 0-0.070-0.019-0.085-0.053-0.176-0.365-0.362-0.708-0.553-1.022-0.19-0.312-0.389-0.597-0.592-0.851-0.031-0.039-0.023-0.096 0.017-0.128 0.041-0.030 0.099-0.023 0.132 0.017 0.207 0.259 0.41 0.552 0.604 0.87s0.383 0.667 0.561 1.037c0.021 0.045 0 0.1-0.044 0.12-0.014 0.006-0.027 0.009-0.039 0.009z"></path>
<path fill="#fff" style="fill: var(--color1, #fff)" d="M12.235 3.687c-0.014 0-0.027-0.004-0.039-0.009-0.046-0.021-0.068-0.075-0.044-0.12 0.178-0.37 0.368-0.72 0.561-1.037s0.397-0.611 0.604-0.87c0.031-0.039 0.091-0.047 0.132-0.017s0.048 0.088 0.017 0.128c-0.203 0.254-0.4 0.539-0.592 0.851s-0.377 0.658-0.553 1.022c-0.015 0.034-0.050 0.053-0.085 0.053z"></path>
<path fill="#fff" style="fill: var(--color1, #fff)" d="M9.016 3.686c-0.021 0-0.043-0.007-0.060-0.023-0.039-0.032-0.043-0.090-0.010-0.128 0.331-0.37 0.679-0.72 1.037-1.037s0.733-0.609 1.114-0.868c0.043-0.028 0.101-0.019 0.13 0.023s0.019 0.098-0.023 0.126c-0.375 0.254-0.743 0.541-1.095 0.853s-0.696 0.656-1.021 1.022c-0.019 0.021-0.044 0.032-0.072 0.032z"></path>
<path fill="#fff" style="fill: var(--color1, #fff)" d="M6.866 3.686c-0.025 0-0.052-0.009-0.070-0.030-0.035-0.038-0.031-0.094 0.008-0.128 0.431-0.37 0.886-0.72 1.354-1.035 0.468-0.318 0.956-0.609 1.453-0.866 0.044-0.023 0.102-0.008 0.126 0.038 0.025 0.045 0.008 0.1-0.039 0.122-0.489 0.256-0.973 0.543-1.433 0.855-0.462 0.314-0.911 0.658-1.337 1.022-0.017 0.015-0.041 0.023-0.062 0.023z"></path>
<path fill="#fff" style="fill: var(--color1, #fff)" d="M13.437 31.54c-0.010 0-0.021 0-0.031-0.006-0.186-0.064-0.375-0.135-0.565-0.216-0.193-0.083-0.389-0.173-0.58-0.269-0.195-0.098-0.393-0.205-0.584-0.319-0.197-0.117-0.393-0.239-0.58-0.366-0.043-0.028-0.052-0.084-0.023-0.126s0.087-0.051 0.13-0.023c0.184 0.124 0.375 0.246 0.569 0.359 0.19 0.111 0.383 0.216 0.574 0.314 0.188 0.094 0.379 0.182 0.569 0.263 0.186 0.079 0.371 0.15 0.551 0.21 0.048 0.017 0.073 0.070 0.056 0.116-0.013 0.038-0.050 0.060-0.089 0.060l0.004 0.002z"></path>
<path fill="#fff" style="fill: var(--color1, #fff)" d="M27.533 6.199c-0.029 0-0.058-0.013-0.075-0.038-0.681-0.923-1.46-1.762-2.315-2.497-0.039-0.034-0.043-0.090-0.008-0.128s0.093-0.041 0.131-0.007c0.865 0.744 1.652 1.593 2.343 2.527 0.031 0.041 0.021 0.098-0.021 0.126-0.017 0.011-0.035 0.017-0.054 0.017z"></path>
<path fill="#fff" style="fill: var(--color1, #fff)" d="M24.833 6.198c-0.033 0-0.066-0.017-0.081-0.047-0.522-0.923-1.118-1.762-1.772-2.497-0.033-0.038-0.029-0.096 0.010-0.128s0.099-0.028 0.132 0.009c0.662 0.744 1.265 1.595 1.793 2.527 0.025 0.043 0.008 0.1-0.037 0.122-0.013 0.008-0.029 0.011-0.044 0.011v0.002z"></path>
<path fill="#fff" style="fill: var(--color1, #fff)" d="M20.795 6.199c-0.041 0-0.077-0.026-0.089-0.066-0.282-0.923-0.605-1.764-0.959-2.499-0.021-0.045 0-0.1 0.044-0.12 0.046-0.021 0.102 0 0.124 0.043 0.358 0.744 0.684 1.593 0.968 2.525 0.015 0.049-0.014 0.098-0.062 0.113-0.010 0.002-0.017 0.004-0.027 0.004z"></path>
<path fill="#fff" style="fill: var(--color1, #fff)" d="M11.273 6.198c0 0-0.017 0-0.027-0.004-0.048-0.015-0.077-0.064-0.062-0.113 0.286-0.932 0.611-1.781 0.968-2.525 0.021-0.045 0.077-0.066 0.124-0.043 0.046 0.021 0.068 0.075 0.044 0.12-0.354 0.735-0.677 1.576-0.959 2.499-0.012 0.039-0.048 0.066-0.089 0.066z"></path>
<path fill="#fff" style="fill: var(--color1, #fff)" d="M7.232 6.198c-0.015 0-0.031-0.004-0.045-0.011-0.045-0.024-0.062-0.079-0.037-0.122 0.528-0.934 1.132-1.783 1.793-2.527 0.033-0.038 0.093-0.041 0.132-0.009s0.043 0.090 0.010 0.128c-0.654 0.735-1.25 1.574-1.772 2.497-0.017 0.030-0.048 0.047-0.081 0.047v-0.002z"></path>
<path fill="#fff" style="fill: var(--color1, #fff)" d="M4.537 6.199c-0.019 0-0.039-0.006-0.054-0.017-0.043-0.028-0.052-0.086-0.021-0.126 0.691-0.934 1.478-1.783 2.343-2.527 0.039-0.034 0.097-0.030 0.132 0.007s0.031 0.094-0.008 0.128c-0.855 0.735-1.633 1.574-2.316 2.497-0.017 0.024-0.046 0.038-0.075 0.038z"></path>
<path fill="#fff" style="fill: var(--color1, #fff)" d="M12.642 31.54c0 0-0.015 0-0.025-0.004-0.24-0.064-0.487-0.135-0.735-0.216-0.252-0.081-0.505-0.171-0.754-0.267-0.253-0.098-0.511-0.205-0.762-0.318-0.257-0.116-0.513-0.239-0.756-0.366-0.044-0.023-0.062-0.079-0.039-0.122 0.025-0.045 0.081-0.060 0.126-0.038 0.24 0.126 0.491 0.246 0.747 0.361 0.249 0.111 0.503 0.218 0.752 0.314 0.246 0.096 0.497 0.184 0.745 0.265 0.244 0.079 0.487 0.15 0.723 0.212 0.050 0.013 0.079 0.064 0.066 0.111-0.012 0.041-0.048 0.068-0.091 0.068h0.004z"></path>
<path fill="#fff" style="fill: var(--color1, #fff)" d="M29.284 9.206c-0.037 0-0.070-0.021-0.085-0.055-0.474-1.063-1.060-2.069-1.743-2.991-0.031-0.041-0.021-0.098 0.021-0.126 0.043-0.030 0.101-0.021 0.13 0.021 0.689 0.932 1.283 1.95 1.762 3.025 0.021 0.045 0 0.1-0.048 0.118-0.012 0.006-0.025 0.008-0.037 0.008z"></path>
<path fill="#fff" style="fill: var(--color1, #fff)" d="M26.174 9.206c-0.039 0-0.075-0.024-0.089-0.062-0.364-1.063-0.813-2.070-1.335-2.993-0.025-0.043-0.008-0.1 0.037-0.124s0.102-0.008 0.128 0.036c0.528 0.932 0.981 1.948 1.348 3.023 0.015 0.047-0.010 0.1-0.060 0.115-0.010 0.004-0.019 0.006-0.029 0.006z"></path>
<path fill="#fff" style="fill: var(--color1, #fff)" d="M21.522 9.206c-0.044 0-0.083-0.030-0.091-0.075-0.197-1.065-0.441-2.074-0.723-2.999-0.015-0.049 0.014-0.098 0.064-0.113s0.101 0.013 0.116 0.060c0.284 0.93 0.53 1.945 0.727 3.017 0.010 0.049-0.025 0.096-0.075 0.105-0.006 0-0.012 0-0.017 0v0.004z"></path>
<path fill="#fff" style="fill: var(--color1, #fff)" d="M10.546 9.206c0 0-0.012 0-0.017 0-0.050-0.009-0.085-0.056-0.075-0.105 0.199-1.073 0.443-2.087 0.727-3.017 0.015-0.049 0.068-0.075 0.116-0.060 0.050 0.015 0.077 0.064 0.064 0.113-0.282 0.923-0.526 1.931-0.723 2.999-0.008 0.043-0.048 0.075-0.091 0.075v-0.004z"></path>
<path fill="#fff" style="fill: var(--color1, #fff)" d="M5.894 9.206c-0.010 0-0.019 0-0.029-0.006-0.048-0.015-0.075-0.068-0.060-0.115 0.368-1.075 0.82-2.091 1.348-3.023 0.025-0.043 0.081-0.060 0.128-0.036 0.045 0.024 0.062 0.079 0.037 0.124-0.522 0.923-0.971 1.93-1.335 2.993-0.014 0.038-0.050 0.062-0.089 0.062z"></path>
<path fill="#fff" style="fill: var(--color1, #fff)" d="M2.783 9.206c-0.012 0-0.025-0.002-0.037-0.008-0.046-0.021-0.070-0.073-0.048-0.118 0.48-1.075 1.072-2.091 1.762-3.025 0.031-0.041 0.089-0.051 0.13-0.021 0.043 0.030 0.052 0.086 0.021 0.126-0.681 0.923-1.267 1.928-1.743 2.991-0.015 0.034-0.050 0.055-0.085 0.055z"></path>
<path fill="#fff" style="fill: var(--color1, #fff)" d="M30.373 12.56c-0.043 0-0.083-0.030-0.091-0.073-0.244-1.15-0.607-2.271-1.081-3.335-0.021-0.047 0-0.1 0.048-0.118 0.048-0.021 0.102 0 0.122 0.047 0.479 1.075 0.847 2.208 1.092 3.371 0.010 0.049-0.021 0.098-0.073 0.107-0.006 0-0.014 0-0.019 0l0.002 0.002z"></path>
<path fill="#fff" style="fill: var(--color1, #fff)" d="M27.008 12.559c-0.044 0-0.085-0.032-0.093-0.077-0.186-1.152-0.464-2.275-0.827-3.339-0.015-0.047 0.010-0.1 0.060-0.115 0.048-0.015 0.102 0.009 0.118 0.058 0.367 1.073 0.648 2.208 0.835 3.367 0.008 0.049-0.027 0.096-0.077 0.103-0.006 0-0.010 0-0.015 0v0.002z"></path>
<path fill="#fff" style="fill: var(--color1, #fff)" d="M21.973 12.559c-0.048 0-0.089-0.036-0.093-0.083-0.101-1.154-0.251-2.279-0.448-3.344-0.010-0.049 0.025-0.096 0.075-0.105s0.099 0.024 0.108 0.073c0.197 1.071 0.35 2.202 0.45 3.361 0.004 0.051-0.033 0.094-0.085 0.098-0.002 0-0.006 0-0.008 0z"></path>
<path fill="#fff" style="fill: var(--color1, #fff)" d="M10.096 12.559c0 0-0.006 0-0.008 0-0.052-0.004-0.089-0.049-0.085-0.098 0.101-1.159 0.253-2.29 0.45-3.361 0.010-0.049 0.058-0.083 0.108-0.073s0.085 0.056 0.075 0.105c-0.197 1.067-0.348 2.191-0.448 3.344-0.004 0.047-0.044 0.083-0.093 0.083z"></path>
<path fill="#fff" style="fill: var(--color1, #fff)" d="M5.060 12.56c0 0-0.010 0-0.015 0-0.050-0.008-0.085-0.055-0.077-0.103 0.188-1.161 0.47-2.294 0.835-3.367 0.015-0.047 0.070-0.073 0.118-0.058s0.075 0.068 0.060 0.115c-0.363 1.063-0.642 2.187-0.827 3.339-0.008 0.045-0.046 0.077-0.093 0.077v-0.002z"></path>
<path fill="#fff" style="fill: var(--color1, #fff)" d="M1.697 12.56c0 0-0.012 0-0.019 0-0.050-0.009-0.083-0.058-0.073-0.107 0.245-1.163 0.613-2.296 1.092-3.371 0.021-0.045 0.075-0.068 0.122-0.047s0.070 0.073 0.048 0.118c-0.474 1.063-0.837 2.185-1.081 3.335-0.010 0.043-0.048 0.073-0.091 0.073l0.002-0.002z"></path>
<path fill="#fff" style="fill: var(--color1, #fff)" d="M15.73 31.996c-0.157 0-0.246-0.006-0.329-0.015-0.106-0.011-0.199-0.032-0.282-0.051l-0.073-0.017c-0.083-0.017-0.162-0.030-0.238-0.041l-0.050-0.007c-0.095-0.015-0.184-0.030-0.273-0.047-0.050-0.009-0.083-0.056-0.073-0.107 0.010-0.049 0.058-0.081 0.11-0.071 0.087 0.017 0.176 0.032 0.267 0.047l0.050 0.007c0.079 0.013 0.161 0.024 0.248 0.043l0.077 0.017c0.081 0.019 0.166 0.038 0.261 0.047 0.075 0.007 0.159 0.011 0.31 0.013 0.052 0 0.093 0.041 0.093 0.092 0 0.049-0.043 0.090-0.093 0.090h-0.004z"></path>
<path fill="#fff" style="fill: var(--color1, #fff)" d="M30.741 16.090c-0.052 0-0.093-0.041-0.093-0.090 0-1.18-0.124-2.362-0.367-3.511-0.010-0.049 0.021-0.098 0.073-0.107 0.050-0.011 0.101 0.021 0.11 0.071 0.245 1.163 0.371 2.356 0.371 3.547 0 0.051-0.043 0.090-0.093 0.090h-0.002z"></path>
<path fill="#fff" style="fill: var(--color1, #fff)" d="M1.327 16.090c-0.052 0-0.093-0.041-0.093-0.090 0-1.191 0.124-2.386 0.371-3.547 0.010-0.049 0.060-0.081 0.11-0.071s0.083 0.058 0.073 0.107c-0.244 1.15-0.367 2.332-0.367 3.511 0 0.051-0.043 0.090-0.093 0.090h-0.002z"></path>
<path fill="#fff" style="fill: var(--color1, #fff)" d="M12.361 31.539c-0.035 0-0.068-0.019-0.083-0.051-0.014-0.024-0.014-0.054 0-0.079 0.012-0.024 0.037-0.045 0.064-0.051 0.006 0 0.021-0.004 0.027-0.004s0.015 0 0.031 0c0.052 0 0.093 0.041 0.093 0.090s-0.042 0.090-0.093 0.090h-0.015c0 0-0.015 0.004-0.023 0.004z"></path>
<path fill="#fff" style="fill: var(--color1, #fff)" d="M14.501 31.821c0 0-0.012 0-0.017 0-0.089-0.017-0.178-0.036-0.267-0.054-0.089-0.021-0.178-0.041-0.267-0.064s-0.18-0.049-0.269-0.075c-0.091-0.028-0.182-0.056-0.273-0.088-0.048-0.017-0.073-0.068-0.058-0.114 0.017-0.047 0.070-0.073 0.12-0.056 0.089 0.030 0.178 0.060 0.267 0.086s0.176 0.051 0.263 0.073c0.087 0.023 0.174 0.043 0.261 0.064 0.087 0.019 0.174 0.038 0.261 0.054 0.050 0.009 0.083 0.058 0.073 0.107-0.010 0.043-0.048 0.073-0.091 0.073l-0.004-0.006z"></path>
<path fill="#fff" style="fill: var(--color1, #fff)" d="M30.372 19.619c0 0-0.012 0-0.019 0-0.050-0.009-0.083-0.058-0.073-0.107 0.244-1.15 0.367-2.332 0.367-3.511 0-0.051 0.043-0.090 0.093-0.090s0.093 0.041 0.093 0.090c0 1.191-0.124 2.386-0.371 3.549-0.010 0.043-0.048 0.073-0.091 0.073l0.002-0.004z"></path>
<path fill="#fff" style="fill: var(--color1, #fff)" d="M27.009 19.619c0 0-0.010 0-0.015 0-0.050-0.008-0.085-0.055-0.077-0.103 0.186-1.152 0.28-2.335 0.28-3.515 0-0.051 0.043-0.090 0.093-0.090s0.093 0.041 0.093 0.090c0 1.191-0.095 2.382-0.282 3.543-0.008 0.045-0.046 0.077-0.093 0.077l0.002-0.002z"></path>
<path fill="#fff" style="fill: var(--color1, #fff)" d="M21.974 19.619c0 0-0.006 0-0.008 0-0.052-0.004-0.089-0.049-0.085-0.098 0.101-1.154 0.153-2.339 0.153-3.523 0-0.051 0.043-0.090 0.093-0.090s0.093 0.041 0.093 0.090c0 1.189-0.052 2.379-0.153 3.538-0.004 0.047-0.044 0.083-0.093 0.083z"></path>
<path fill="#fff" style="fill: var(--color1, #fff)" d="M10.095 19.619c-0.048 0-0.089-0.036-0.093-0.083-0.102-1.159-0.153-2.349-0.153-3.538 0-0.051 0.043-0.090 0.093-0.090s0.093 0.041 0.093 0.090c0 1.184 0.050 2.369 0.153 3.523 0.004 0.051-0.033 0.094-0.085 0.098-0.002 0-0.006 0-0.008 0z"></path>
<path fill="#fff" style="fill: var(--color1, #fff)" d="M5.061 19.619c-0.044 0-0.085-0.032-0.093-0.077-0.188-1.161-0.282-2.354-0.282-3.543 0-0.051 0.043-0.090 0.093-0.090s0.093 0.041 0.093 0.090c0 1.182 0.095 2.364 0.28 3.515 0.008 0.049-0.027 0.096-0.077 0.103-0.006 0-0.010 0-0.015 0l0.002 0.002z"></path>
<path fill="#fff" style="fill: var(--color1, #fff)" d="M1.697 19.619c-0.043 0-0.083-0.030-0.091-0.073-0.246-1.163-0.371-2.356-0.371-3.549 0-0.051 0.043-0.090 0.093-0.090s0.093 0.041 0.093 0.090c0 1.18 0.124 2.362 0.367 3.511 0.010 0.049-0.021 0.098-0.073 0.107-0.006 0-0.014 0-0.019 0l0.002 0.004z"></path>
<path fill="#fff" style="fill: var(--color1, #fff)" d="M19.708 31.539c0 0-0.017 0-0.025-0.004h-0.012c-0.052 0-0.093-0.039-0.093-0.090s0.042-0.090 0.093-0.090c0.015 0 0.025 0 0.033 0 0.006 0 0.021 0.002 0.027 0.004 0.027 0.007 0.052 0.026 0.064 0.051s0.012 0.054 0 0.079c-0.017 0.032-0.050 0.051-0.083 0.051h-0.004z"></path>
<path fill="#fff" style="fill: var(--color1, #fff)" d="M29.284 22.973c-0.012 0-0.025-0.002-0.037-0.007-0.046-0.021-0.070-0.073-0.048-0.118 0.474-1.063 0.837-2.185 1.081-3.335 0.010-0.049 0.060-0.081 0.11-0.071s0.083 0.058 0.073 0.107c-0.246 1.163-0.613 2.296-1.092 3.371-0.015 0.034-0.050 0.055-0.085 0.055h-0.002z"></path>
<path fill="#fff" style="fill: var(--color1, #fff)" d="M26.174 22.973c-0.010 0-0.019 0-0.029-0.004-0.048-0.015-0.075-0.068-0.060-0.115 0.363-1.063 0.642-2.187 0.827-3.339 0.008-0.049 0.056-0.084 0.106-0.075 0.050 0.008 0.085 0.055 0.077 0.103-0.187 1.161-0.47 2.294-0.835 3.367-0.013 0.038-0.050 0.062-0.089 0.062h0.002z"></path>
<path fill="#fff" style="fill: var(--color1, #fff)" d="M21.522 22.973c0 0-0.012 0-0.017 0-0.050-0.009-0.085-0.056-0.075-0.105 0.197-1.065 0.348-2.191 0.448-3.344 0.004-0.051 0.048-0.088 0.101-0.083 0.052 0.004 0.089 0.049 0.085 0.098-0.102 1.159-0.253 2.29-0.45 3.361-0.008 0.043-0.048 0.075-0.091 0.075v-0.002z"></path>
<path fill="#fff" style="fill: var(--color1, #fff)" d="M10.544 22.973c-0.044 0-0.083-0.030-0.091-0.075-0.197-1.071-0.35-2.202-0.45-3.361-0.004-0.051 0.033-0.094 0.085-0.098 0.054-0.006 0.097 0.032 0.101 0.083 0.101 1.154 0.251 2.279 0.448 3.344 0.010 0.049-0.025 0.096-0.075 0.105-0.006 0-0.012 0-0.017 0v0.002z"></path>
<path fill="#fff" style="fill: var(--color1, #fff)" d="M5.892 22.972c-0.039 0-0.075-0.024-0.089-0.062-0.367-1.073-0.648-2.206-0.835-3.367-0.008-0.049 0.027-0.096 0.077-0.103s0.099 0.026 0.106 0.075c0.186 1.152 0.464 2.275 0.827 3.339 0.015 0.047-0.010 0.099-0.060 0.115-0.010 0.004-0.019 0.004-0.029 0.004h0.002z"></path>
<path fill="#fff" style="fill: var(--color1, #fff)" d="M2.783 22.972c-0.037 0-0.070-0.021-0.085-0.054-0.479-1.075-0.847-2.208-1.092-3.371-0.010-0.049 0.021-0.098 0.073-0.107 0.050-0.009 0.101 0.021 0.11 0.071 0.244 1.15 0.607 2.271 1.081 3.335 0.021 0.047 0 0.1-0.048 0.118-0.012 0.006-0.025 0.007-0.037 0.007h-0.002z"></path>
<path fill="#fff" style="fill: var(--color1, #fff)" d="M18.036 31.821c-0.044 0-0.085-0.032-0.093-0.077-0.008-0.049 0.027-0.096 0.079-0.103 0.114-0.017 0.228-0.034 0.342-0.054 0.114-0.019 0.228-0.039 0.342-0.064 0.114-0.023 0.228-0.047 0.344-0.073s0.232-0.056 0.35-0.086c0.050-0.011 0.101 0.017 0.114 0.064 0.014 0.049-0.015 0.098-0.066 0.111-0.12 0.032-0.238 0.060-0.356 0.086s-0.234 0.053-0.35 0.075c-0.116 0.023-0.232 0.045-0.348 0.064-0.116 0.021-0.232 0.037-0.348 0.054-0.004 0-0.010 0-0.014 0l0.002 0.004z"></path>
<path fill="#fff" style="fill: var(--color1, #fff)" d="M17.567 31.821c-0.044 0-0.083-0.030-0.091-0.073-0.010-0.049 0.023-0.096 0.073-0.107 0.087-0.017 0.174-0.034 0.261-0.054 0.087-0.019 0.174-0.039 0.261-0.064 0.087-0.023 0.174-0.047 0.263-0.073s0.178-0.054 0.267-0.086c0.048-0.017 0.102 0.008 0.12 0.056 0.017 0.047-0.008 0.099-0.058 0.114-0.093 0.032-0.184 0.060-0.273 0.088-0.091 0.026-0.18 0.052-0.269 0.075s-0.178 0.045-0.267 0.064c-0.089 0.021-0.178 0.039-0.267 0.054-0.006 0-0.012 0-0.017 0l-0.004 0.006z"></path>
<path fill="#fff" style="fill: var(--color1, #fff)" d="M27.532 25.98c-0.019 0-0.039-0.006-0.054-0.017-0.043-0.030-0.052-0.086-0.021-0.126 0.681-0.922 1.267-1.93 1.743-2.991 0.021-0.045 0.075-0.068 0.122-0.047s0.070 0.073 0.048 0.12c-0.48 1.075-1.072 2.091-1.762 3.025-0.017 0.024-0.046 0.038-0.075 0.038v-0.002z"></path>
<path fill="#fff" style="fill: var(--color1, #fff)" d="M24.834 25.98c-0.015 0-0.031-0.004-0.044-0.011-0.044-0.024-0.062-0.079-0.037-0.122 0.522-0.922 0.971-1.93 1.335-2.993 0.015-0.047 0.070-0.073 0.118-0.058s0.075 0.068 0.060 0.115c-0.367 1.073-0.82 2.091-1.348 3.023-0.017 0.030-0.048 0.047-0.081 0.047h-0.002z"></path>
<path fill="#fff" style="fill: var(--color1, #fff)" d="M20.796 25.981c0 0-0.017 0-0.027-0.004-0.050-0.015-0.077-0.064-0.064-0.113 0.282-0.924 0.526-1.931 0.723-2.999 0.010-0.049 0.058-0.083 0.108-0.073s0.085 0.056 0.075 0.105c-0.199 1.073-0.443 2.087-0.727 3.017-0.012 0.039-0.048 0.066-0.089 0.066z"></path>
<path fill="#fff" style="fill: var(--color1, #fff)" d="M11.271 25.981c-0.041 0-0.077-0.026-0.089-0.066-0.284-0.93-0.53-1.945-0.727-3.017-0.010-0.049 0.025-0.096 0.075-0.105s0.099 0.024 0.108 0.073c0.197 1.065 0.441 2.074 0.723 2.999 0.015 0.049-0.013 0.098-0.064 0.113-0.010 0.002-0.017 0.004-0.027 0.004z"></path>
<path fill="#fff" style="fill: var(--color1, #fff)" d="M7.233 25.981c-0.033 0-0.066-0.017-0.081-0.047-0.528-0.932-0.981-1.95-1.348-3.023-0.015-0.047 0.010-0.1 0.060-0.115 0.048-0.017 0.103 0.009 0.118 0.058 0.364 1.063 0.812 2.070 1.335 2.993 0.025 0.043 0.008 0.099-0.037 0.122-0.014 0.007-0.029 0.011-0.045 0.011h-0.002z"></path>
<path fill="#fff" style="fill: var(--color1, #fff)" d="M4.536 25.981c-0.029 0-0.058-0.013-0.075-0.038-0.689-0.932-1.282-1.95-1.762-3.025-0.021-0.047 0-0.1 0.048-0.12s0.103 0 0.122 0.047c0.474 1.063 1.060 2.069 1.743 2.991 0.031 0.041 0.021 0.098-0.021 0.126-0.017 0.011-0.035 0.017-0.054 0.017v0.002z"></path>
<path fill="#fff" style="fill: var(--color1, #fff)" d="M16.862 31.82c-0.039 0-0.073-0.023-0.087-0.060-0.017-0.047 0.008-0.099 0.056-0.116 0.046-0.017 0.093-0.034 0.137-0.053 0.046-0.019 0.093-0.039 0.137-0.062 0.046-0.023 0.093-0.047 0.139-0.071 0.046-0.026 0.095-0.054 0.141-0.084 0.043-0.028 0.101-0.015 0.13 0.026 0.027 0.041 0.015 0.098-0.027 0.126-0.050 0.032-0.101 0.062-0.151 0.090s-0.099 0.054-0.149 0.077c-0.048 0.024-0.099 0.047-0.147 0.066-0.048 0.021-0.099 0.039-0.147 0.056-0.010 0.004-0.021 0.006-0.031 0.006h-0.002z"></path>
<path fill="#fff" style="fill: var(--color1, #fff)" d="M18.036 0.358c0 0-0.010 0-0.014 0-0.114-0.017-0.23-0.032-0.35-0.047l-0.070-0.008c-0.101-0.011-0.207-0.024-0.317-0.041l-0.101-0.017c-0.108-0.019-0.219-0.038-0.346-0.049-0.075-0.006-0.155-0.009-0.259-0.011-0.052 0-0.093-0.043-0.091-0.092 0-0.051 0.046-0.084 0.095-0.088 0.108 0.002 0.193 0.006 0.271 0.013 0.135 0.011 0.255 0.032 0.362 0.051l0.099 0.017c0.108 0.017 0.211 0.030 0.311 0.041l0.070 0.008c0.122 0.015 0.24 0.030 0.356 0.047 0.050 0.008 0.085 0.054 0.079 0.103-0.008 0.045-0.046 0.077-0.093 0.077l-0.002-0.004z"></path>
<path fill="#fff" style="fill: var(--color1, #fff)" d="M14.033 31.821c0 0-0.010 0-0.013 0-0.116-0.017-0.232-0.036-0.348-0.054s-0.232-0.041-0.348-0.064-0.232-0.049-0.35-0.075c-0.118-0.026-0.236-0.056-0.356-0.086-0.050-0.013-0.079-0.062-0.066-0.111s0.066-0.077 0.114-0.064c0.118 0.030 0.234 0.060 0.35 0.086s0.23 0.051 0.344 0.073 0.228 0.043 0.342 0.064c0.114 0.021 0.228 0.038 0.342 0.054 0.050 0.008 0.087 0.054 0.079 0.103-0.008 0.045-0.046 0.077-0.093 0.077l0.002-0.004z"></path>
<path fill="#fff" style="fill: var(--color1, #fff)" d="M16.862 0.358c-0.010 0-0.021 0-0.031-0.006-0.046-0.017-0.093-0.032-0.141-0.045l-0.029-0.008c-0.044-0.013-0.089-0.026-0.137-0.045l-0.043-0.017c-0.041-0.017-0.085-0.034-0.129-0.043-0.056-0.011-0.126-0.013-0.275-0.013-0.052 0-0.093-0.041-0.093-0.090 0-0.051 0.043-0.090 0.093-0.090 0.153 0 0.236 0 0.311 0.017 0.064 0.013 0.116 0.034 0.164 0.054l0.039 0.015c0.043 0.017 0.083 0.028 0.122 0.039l0.029 0.008c0.052 0.015 0.101 0.032 0.151 0.049 0.048 0.017 0.073 0.069 0.056 0.116-0.013 0.038-0.050 0.060-0.087 0.060v-0.002z"></path>
<path fill="#fff" style="fill: var(--color1, #fff)" d="M25.204 28.492c-0.025 0-0.052-0.009-0.070-0.030-0.035-0.038-0.031-0.094 0.008-0.128 0.855-0.735 1.633-1.575 2.315-2.497 0.029-0.041 0.089-0.051 0.13-0.021 0.043 0.030 0.052 0.086 0.021 0.126-0.691 0.932-1.478 1.783-2.343 2.527-0.017 0.015-0.041 0.023-0.062 0.023z"></path>
<path fill="#fff" style="fill: var(--color1, #fff)" d="M23.053 28.493c-0.021 0-0.043-0.007-0.060-0.023-0.039-0.032-0.042-0.090-0.010-0.128 0.654-0.735 1.25-1.574 1.772-2.497 0.025-0.043 0.081-0.060 0.128-0.036 0.044 0.024 0.062 0.079 0.037 0.124-0.528 0.932-1.132 1.783-1.793 2.527-0.019 0.021-0.044 0.032-0.072 0.032h-0.002z"></path>
<path fill="#fff" style="fill: var(--color1, #fff)" d="M19.832 28.492c-0.014 0-0.027-0.002-0.039-0.007-0.046-0.021-0.068-0.075-0.044-0.12 0.354-0.735 0.677-1.576 0.959-2.499 0.015-0.049 0.068-0.075 0.116-0.062 0.050 0.015 0.077 0.064 0.062 0.113-0.284 0.932-0.611 1.781-0.968 2.525-0.015 0.034-0.050 0.053-0.085 0.053v-0.002z"></path>
<path fill="#fff" style="fill: var(--color1, #fff)" d="M12.233 28.492c-0.035 0-0.070-0.019-0.085-0.053-0.358-0.744-0.684-1.593-0.968-2.525-0.015-0.047 0.013-0.098 0.062-0.113s0.101 0.013 0.116 0.062c0.282 0.922 0.605 1.764 0.959 2.499 0.021 0.045 0 0.1-0.044 0.12-0.014 0.006-0.027 0.008-0.039 0.008v0.002z"></path>
<path fill="#fff" style="fill: var(--color1, #fff)" d="M9.015 28.493c-0.027 0-0.052-0.011-0.072-0.032-0.662-0.744-1.265-1.595-1.793-2.527-0.025-0.043-0.008-0.1 0.037-0.124s0.103-0.008 0.128 0.036c0.522 0.922 1.118 1.762 1.772 2.497 0.033 0.038 0.029 0.096-0.010 0.128-0.017 0.015-0.039 0.023-0.062 0.023z"></path>
<path fill="#fff" style="fill: var(--color1, #fff)" d="M6.866 28.492c-0.021 0-0.045-0.007-0.062-0.023-0.865-0.744-1.652-1.593-2.343-2.527-0.031-0.041-0.021-0.098 0.021-0.126 0.043-0.030 0.101-0.021 0.13 0.021 0.681 0.922 1.46 1.762 2.316 2.497 0.039 0.034 0.043 0.090 0.008 0.128-0.019 0.021-0.045 0.030-0.070 0.030z"></path>
<path fill="#fff" style="fill: var(--color1, #fff)" d="M19.669 0.642c0 0-0.015 0-0.023-0.004-0.122-0.030-0.24-0.058-0.356-0.084-0.114-0.026-0.226-0.049-0.329-0.069-0.105-0.021-0.201-0.037-0.288-0.053-0.085-0.015-0.16-0.026-0.203-0.034-0.050-0.008-0.085-0.054-0.077-0.103s0.056-0.084 0.106-0.075c0.043 0.006 0.118 0.019 0.207 0.034 0.087 0.015 0.186 0.034 0.292 0.054s0.217 0.045 0.335 0.071c0.116 0.026 0.238 0.054 0.36 0.084 0.050 0.013 0.079 0.062 0.068 0.111-0.012 0.041-0.048 0.068-0.091 0.068z"></path>
<path fill="#fff" style="fill: var(--color1, #fff)" d="M18.487 31.778c-0.044 0-0.085-0.032-0.093-0.077-0.008-0.049 0.027-0.096 0.077-0.103 0.041-0.006 0.116-0.019 0.203-0.032 0.087-0.015 0.184-0.032 0.286-0.053 0.104-0.021 0.215-0.043 0.329-0.069s0.234-0.054 0.354-0.084c0.050-0.013 0.101 0.017 0.114 0.066s-0.017 0.098-0.068 0.111c-0.124 0.030-0.244 0.060-0.36 0.084-0.116 0.026-0.228 0.049-0.335 0.069-0.104 0.021-0.205 0.039-0.292 0.054s-0.164 0.028-0.207 0.034c-0.004 0-0.010 0-0.014 0h0.004z"></path>
<path fill="#fff" style="fill: var(--color1, #fff)" d="M14.033 0.358c-0.044 0-0.085-0.032-0.093-0.077-0.008-0.049 0.027-0.096 0.079-0.103 0.116-0.017 0.234-0.032 0.356-0.047l0.070-0.008c0.099-0.011 0.201-0.024 0.311-0.041l0.099-0.017c0.106-0.019 0.226-0.039 0.362-0.051 0.079-0.007 0.162-0.009 0.271-0.013 0.048 0 0.095 0.039 0.095 0.088 0 0.051-0.041 0.092-0.091 0.092-0.104 0.002-0.184 0.006-0.259 0.011-0.128 0.011-0.238 0.030-0.346 0.049l-0.101 0.017c-0.112 0.017-0.217 0.030-0.317 0.041l-0.068 0.008c-0.12 0.015-0.236 0.030-0.35 0.047-0.004 0-0.010 0-0.014 0l-0.004 0.004z"></path>
<path fill="#fff" style="fill: var(--color1, #fff)" d="M16.582 31.994c-0.050 0-0.093-0.039-0.093-0.088 0-0.051 0.041-0.092 0.091-0.092 0.104 0 0.184-0.006 0.259-0.011 0.128-0.011 0.24-0.030 0.346-0.047l0.099-0.017c0.112-0.019 0.219-0.030 0.321-0.043l0.066-0.007c0.12-0.015 0.236-0.030 0.35-0.047 0.050-0.007 0.099 0.026 0.106 0.077 0.008 0.049-0.027 0.096-0.079 0.103-0.116 0.017-0.234 0.032-0.356 0.047l-0.066 0.007c-0.101 0.011-0.203 0.024-0.313 0.041l-0.097 0.017c-0.106 0.019-0.228 0.038-0.364 0.049-0.079 0.007-0.162 0.011-0.271 0.013v-0.002z"></path>
<path fill="#fff" style="fill: var(--color1, #fff)" d="M15.486 31.994c-0.108-0.002-0.193-0.006-0.271-0.013-0.135-0.011-0.257-0.032-0.364-0.049l-0.097-0.017c-0.11-0.017-0.215-0.030-0.313-0.041l-0.066-0.007c-0.122-0.015-0.24-0.030-0.356-0.047-0.050-0.007-0.087-0.054-0.079-0.103s0.056-0.083 0.106-0.077c0.114 0.017 0.23 0.032 0.35 0.047l0.066 0.007c0.102 0.013 0.209 0.024 0.321 0.043l0.099 0.017c0.108 0.019 0.22 0.038 0.348 0.047 0.075 0.006 0.155 0.009 0.259 0.011 0.052 0 0.093 0.041 0.091 0.092 0 0.049-0.042 0.088-0.093 0.088l-0.002 0.002z"></path>
<path fill="#fff" style="fill: var(--color1, #fff)" d="M22.415 30.382c-0.033 0-0.066-0.017-0.083-0.047-0.025-0.045-0.008-0.1 0.039-0.122 0.491-0.256 0.973-0.543 1.433-0.855 0.462-0.312 0.911-0.658 1.337-1.022 0.039-0.034 0.097-0.030 0.132 0.007s0.031 0.094-0.008 0.128c-0.431 0.37-0.886 0.72-1.354 1.035-0.466 0.316-0.956 0.609-1.453 0.866-0.013 0.008-0.029 0.011-0.044 0.011l0.002-0.002z"></path>
<path fill="#fff" style="fill: var(--color1, #fff)" d="M20.919 30.382c-0.029 0-0.058-0.013-0.077-0.039-0.029-0.041-0.019-0.098 0.023-0.126 0.375-0.254 0.743-0.541 1.095-0.853s0.696-0.656 1.021-1.022c0.033-0.038 0.093-0.043 0.131-0.009 0.039 0.032 0.043 0.090 0.010 0.128-0.331 0.37-0.679 0.72-1.037 1.037s-0.733 0.609-1.114 0.868c-0.015 0.011-0.035 0.017-0.054 0.017h0.002z"></path>
<path fill="#fff" style="fill: var(--color1, #fff)" d="M22.413 30.382h-1.497c-0.052 0-0.093-0.041-0.093-0.090s0.042-0.090 0.093-0.090h1.497c0.052 0 0.093 0.041 0.093 0.090s-0.043 0.090-0.093 0.090z"></path>
<path fill="#fff" style="fill: var(--color1, #fff)" d="M18.677 30.382c-0.019 0-0.041-0.006-0.058-0.019-0.041-0.030-0.048-0.088-0.017-0.128 0.201-0.254 0.401-0.539 0.592-0.851 0.192-0.314 0.377-0.656 0.553-1.022 0.021-0.045 0.077-0.064 0.124-0.043s0.068 0.075 0.044 0.12c-0.178 0.37-0.368 0.72-0.561 1.037s-0.399 0.611-0.604 0.87c-0.019 0.023-0.046 0.036-0.074 0.036z"></path>
<path fill="#fff" style="fill: var(--color1, #fff)" d="M20.918 30.382h-2.24c-0.052 0-0.093-0.041-0.093-0.090s0.043-0.090 0.093-0.090h2.24c0.052 0 0.093 0.041 0.093 0.090s-0.043 0.090-0.093 0.090z"></path>
<path fill="#fff" style="fill: var(--color1, #fff)" d="M18.202 31.821c-0.052 0-0.093-0.041-0.093-0.090s0.043-0.090 0.093-0.090c0.050 0 0.093 0.041 0.093 0.090s-0.042 0.090-0.093 0.090z"></path>
<path fill="#fff" style="fill: var(--color1, #fff)" d="M16.036 30.382c-0.052 0-0.093-0.041-0.093-0.090v-1.89c0-0.051 0.042-0.090 0.093-0.090s0.093 0.041 0.093 0.090v1.89c0 0.051-0.042 0.090-0.093 0.090z"></path>
<path fill="#fff" style="fill: var(--color1, #fff)" d="M18.678 30.382h-2.642c-0.052 0-0.093-0.041-0.093-0.090s0.043-0.090 0.093-0.090h2.642c0.052 0 0.093 0.041 0.093 0.090s-0.043 0.090-0.093 0.090z"></path>
<path fill="#fff" style="fill: var(--color1, #fff)" d="M13.391 30.382c-0.027 0-0.056-0.011-0.073-0.036-0.207-0.259-0.41-0.552-0.604-0.87s-0.383-0.667-0.561-1.037c-0.021-0.045 0-0.1 0.044-0.12s0.102 0 0.124 0.043c0.176 0.364 0.362 0.708 0.553 1.022 0.19 0.312 0.389 0.597 0.592 0.851 0.031 0.039 0.023 0.096-0.017 0.128-0.017 0.013-0.037 0.019-0.058 0.019z"></path>
<path fill="#fff" style="fill: var(--color1, #fff)" d="M16.036 30.382h-2.642c-0.052 0-0.093-0.041-0.093-0.090s0.043-0.090 0.093-0.090h2.642c0.052 0 0.093 0.041 0.093 0.090s-0.042 0.090-0.093 0.090z"></path>
<path fill="#fff" style="fill: var(--color1, #fff)" d="M11.15 30.382c-0.019 0-0.037-0.006-0.054-0.017-0.381-0.259-0.756-0.55-1.114-0.868s-0.708-0.667-1.037-1.037c-0.033-0.038-0.029-0.096 0.010-0.128 0.039-0.034 0.099-0.028 0.132 0.009 0.325 0.364 0.669 0.708 1.021 1.022 0.352 0.312 0.721 0.599 1.095 0.853 0.042 0.028 0.052 0.085 0.023 0.126-0.017 0.024-0.046 0.039-0.077 0.039h0.002z"></path>
<path fill="#fff" style="fill: var(--color1, #fff)" d="M17.567 0.358c0 0-0.012 0-0.017 0-0.087-0.017-0.176-0.032-0.267-0.047l-0.052-0.008c-0.077-0.011-0.159-0.024-0.246-0.043l-0.077-0.017c-0.081-0.019-0.166-0.038-0.261-0.047-0.075-0.008-0.162-0.011-0.309-0.013-0.052 0-0.093-0.041-0.093-0.092s0.041-0.090 0.095-0.090c0.153 0 0.246 0.006 0.329 0.015 0.106 0.011 0.199 0.032 0.282 0.051l0.073 0.017c0.083 0.017 0.161 0.030 0.236 0.041l0.052 0.008c0.093 0.015 0.184 0.030 0.273 0.047 0.050 0.009 0.083 0.056 0.073 0.107-0.010 0.043-0.048 0.073-0.091 0.073v-0.002z"></path>
<path fill="#fff" style="fill: var(--color1, #fff)" d="M13.391 30.382h-2.24c-0.052 0-0.093-0.041-0.093-0.090s0.043-0.090 0.093-0.090h2.24c0.052 0 0.093 0.041 0.093 0.090s-0.043 0.090-0.093 0.090z"></path>
<path fill="#fff" style="fill: var(--color1, #fff)" d="M14.502 0.358c-0.044 0-0.083-0.030-0.091-0.073-0.010-0.049 0.023-0.096 0.073-0.107 0.089-0.017 0.18-0.032 0.273-0.047l0.052-0.008c0.075-0.011 0.153-0.024 0.236-0.041l0.073-0.017c0.083-0.019 0.176-0.039 0.282-0.051 0.083-0.009 0.174-0.013 0.329-0.015 0.054 0 0.093 0.039 0.095 0.090 0 0.051-0.041 0.092-0.093 0.092-0.147 0-0.234 0.006-0.31 0.013-0.095 0.009-0.18 0.028-0.261 0.047l-0.077 0.017c-0.087 0.017-0.168 0.030-0.246 0.043l-0.052 0.008c-0.091 0.015-0.18 0.030-0.267 0.047-0.006 0-0.012 0-0.017 0v0.002z"></path>
<path fill="#fff" style="fill: var(--color1, #fff)" d="M9.654 30.382c-0.015 0-0.029-0.004-0.044-0.011-0.497-0.259-0.987-0.55-1.453-0.866-0.468-0.317-0.923-0.665-1.354-1.035-0.039-0.034-0.043-0.090-0.008-0.128s0.093-0.041 0.132-0.007c0.426 0.366 0.874 0.71 1.337 1.022 0.46 0.312 0.944 0.601 1.433 0.855 0.044 0.024 0.062 0.079 0.039 0.122-0.017 0.030-0.048 0.047-0.083 0.047l0.002 0.002z"></path>
<path fill="#fff" style="fill: var(--color1, #fff)" d="M11.151 30.382h-1.497c-0.052 0-0.093-0.041-0.093-0.090s0.043-0.090 0.093-0.090h1.497c0.052 0 0.093 0.041 0.093 0.090s-0.043 0.090-0.093 0.090z"></path>
<path fill="#fff" style="fill: var(--color1, #fff)" d="M15.988 31.998c-0.153 0-0.236 0-0.311-0.017-0.064-0.013-0.116-0.036-0.164-0.054l-0.039-0.015c-0.042-0.017-0.085-0.028-0.124-0.039l-0.027-0.007c-0.052-0.015-0.102-0.032-0.151-0.049s-0.073-0.069-0.056-0.116c0.017-0.047 0.071-0.071 0.12-0.054 0.046 0.017 0.093 0.032 0.141 0.045l0.027 0.007c0.044 0.013 0.091 0.026 0.139 0.045l0.043 0.017c0.041 0.017 0.085 0.034 0.129 0.043 0.056 0.011 0.122 0.013 0.275 0.013 0.052 0 0.093 0.041 0.093 0.090 0 0.051-0.043 0.090-0.093 0.090l-0.002 0.002z"></path>
<path fill="#fff" style="fill: var(--color1, #fff)" d="M9.653 30.382h-0.526c-0.052 0-0.093-0.041-0.093-0.090s0.043-0.090 0.093-0.090h0.526c0.052 0 0.093 0.041 0.093 0.090s-0.043 0.090-0.093 0.090z"></path>
<path fill="#fff" style="fill: var(--color1, #fff)" d="M15.205 31.82c-0.010 0-0.021 0-0.031-0.006-0.050-0.017-0.099-0.036-0.149-0.056-0.048-0.021-0.099-0.041-0.147-0.066-0.050-0.024-0.099-0.049-0.149-0.077s-0.1-0.058-0.151-0.090c-0.043-0.026-0.056-0.083-0.027-0.126 0.027-0.041 0.085-0.054 0.129-0.026 0.048 0.030 0.095 0.058 0.141 0.084s0.093 0.051 0.139 0.071c0.046 0.023 0.091 0.043 0.137 0.062s0.093 0.038 0.139 0.053c0.048 0.017 0.073 0.069 0.056 0.116-0.014 0.038-0.050 0.060-0.087 0.060h-0.002z"></path>
<path fill="#fff" style="fill: var(--color1, #fff)" d="M22.939 30.382h-0.526c-0.052 0-0.093-0.041-0.093-0.090s0.042-0.090 0.093-0.090h0.526c0.052 0 0.093 0.041 0.093 0.090s-0.042 0.090-0.093 0.090z"></path>
<path fill="#fff" style="fill: var(--color1, #fff)" d="M19.428 31.54c-0.041 0-0.079-0.026-0.091-0.068-0.014-0.049 0.015-0.098 0.066-0.111 0.236-0.062 0.48-0.133 0.724-0.212 0.25-0.081 0.499-0.169 0.745-0.265 0.251-0.096 0.505-0.203 0.753-0.314 0.253-0.115 0.505-0.235 0.747-0.361 0.046-0.023 0.102-0.007 0.126 0.038 0.025 0.043 0.008 0.1-0.039 0.122-0.244 0.128-0.499 0.25-0.756 0.366-0.251 0.113-0.509 0.22-0.762 0.318-0.25 0.096-0.503 0.186-0.754 0.267-0.248 0.079-0.493 0.152-0.735 0.216-0.008 0-0.015 0.004-0.025 0.004h0.004z"></path>
<path fill="#fff" style="fill: var(--color1, #fff)" d="M18.632 31.54c-0.039 0-0.075-0.023-0.089-0.060-0.017-0.047 0.008-0.1 0.056-0.116 0.18-0.062 0.366-0.133 0.551-0.21 0.19-0.081 0.381-0.169 0.569-0.263 0.192-0.096 0.385-0.201 0.575-0.314 0.193-0.115 0.387-0.235 0.569-0.359 0.042-0.028 0.101-0.019 0.13 0.023s0.019 0.098-0.023 0.126c-0.188 0.128-0.383 0.25-0.58 0.366-0.193 0.113-0.391 0.22-0.586 0.319-0.192 0.096-0.387 0.186-0.58 0.269-0.19 0.081-0.379 0.152-0.565 0.216-0.010 0.004-0.021 0.006-0.031 0.006l0.006-0.002z"></path>
<path fill="#fff" style="fill: var(--color1, #fff)" d="M18.63 31.539c-0.052 0-0.093-0.039-0.093-0.090s0.043-0.090 0.093-0.090l0.485-0.004c0.052 0 0.093 0.041 0.093 0.090s-0.042 0.090-0.093 0.090l-0.485 0.004z"></path>
<path fill="#fff" style="fill: var(--color1, #fff)" d="M16.553 31.996c-0.050 0-0.093-0.039-0.093-0.090s0.041-0.092 0.093-0.092h0.027c0.050-0.006 0.095 0.038 0.097 0.088s-0.039 0.092-0.091 0.094h-0.033z"></path>
<path fill="#fff" style="fill: var(--color1, #fff)" d="M16.337 31.996c-0.050 0-0.093-0.039-0.093-0.090s0.041-0.090 0.093-0.092c0.149 0 0.234-0.006 0.309-0.013 0.095-0.011 0.18-0.030 0.261-0.047l0.075-0.017c0.087-0.019 0.168-0.030 0.248-0.043l0.050-0.007c0.091-0.015 0.18-0.030 0.267-0.047 0.050-0.009 0.101 0.023 0.11 0.071s-0.023 0.098-0.074 0.107c-0.089 0.017-0.18 0.032-0.273 0.047l-0.050 0.007c-0.075 0.011-0.155 0.024-0.238 0.041l-0.073 0.017c-0.083 0.019-0.176 0.039-0.282 0.051-0.083 0.009-0.172 0.013-0.329 0.015h-0.002z"></path>
<path fill="#fff" style="fill: var(--color1, #fff)" d="M19.427 31.539l-0.311-0.004c-0.052 0-0.093-0.041-0.093-0.090s0.042-0.090 0.093-0.090l0.311 0.004c0.052 0 0.093 0.041 0.093 0.090s-0.043 0.090-0.093 0.090z"></path>
<path fill="#fff" style="fill: var(--color1, #fff)" d="M16.077 31.998c-0.052 0-0.093-0.041-0.093-0.090 0-0.051 0.043-0.090 0.093-0.090 0.151 0 0.218 0 0.275-0.013 0.046-0.009 0.089-0.026 0.129-0.043l0.043-0.017c0.048-0.019 0.095-0.032 0.139-0.045l0.027-0.007c0.048-0.015 0.095-0.030 0.141-0.045 0.048-0.017 0.102 0.007 0.12 0.054s-0.008 0.099-0.056 0.116c-0.050 0.017-0.099 0.034-0.151 0.049l-0.027 0.007c-0.039 0.011-0.081 0.023-0.124 0.039l-0.039 0.015c-0.046 0.019-0.101 0.041-0.164 0.054-0.075 0.015-0.159 0.017-0.311 0.017l-0.002-0.002z"></path>
<path fill="#fff" style="fill: var(--color1, #fff)" d="M17.44 31.539c-0.031 0-0.060-0.015-0.077-0.041-0.029-0.041-0.015-0.098 0.027-0.126 0.097-0.060 0.195-0.132 0.294-0.209 0.102-0.079 0.205-0.167 0.304-0.261 0.102-0.096 0.207-0.201 0.31-0.31 0.104-0.113 0.207-0.233 0.308-0.359 0.031-0.039 0.091-0.047 0.131-0.017s0.048 0.088 0.017 0.128c-0.103 0.128-0.209 0.252-0.315 0.368-0.104 0.115-0.213 0.222-0.319 0.321-0.104 0.098-0.211 0.188-0.317 0.271-0.104 0.081-0.209 0.154-0.31 0.22-0.015 0.009-0.033 0.015-0.050 0.015h-0.002z"></path>
<path fill="#fff" style="fill: var(--color1, #fff)" d="M17.44 31.539c-0.052 0-0.093-0.039-0.093-0.090s0.043-0.090 0.093-0.090l0.653-0.004c0.052 0 0.093 0.041 0.093 0.090s-0.043 0.090-0.093 0.090l-0.653 0.004z"></path>
<path fill="#fff" style="fill: var(--color1, #fff)" d="M18.629 31.539l-0.537-0.004c-0.052 0-0.093-0.041-0.093-0.090s0.043-0.090 0.093-0.090l0.537 0.004c0.052 0 0.093 0.041 0.093 0.090s-0.042 0.090-0.093 0.090z"></path>
<path fill="#fff" style="fill: var(--color1, #fff)" d="M16.615 31.996c-0.050 0-0.093-0.039-0.093-0.088 0-0.051 0.041-0.092 0.091-0.092 0.097 0 0.174-0.004 0.245-0.009 0.052-0.004 0.097 0.034 0.099 0.084 0.004 0.051-0.035 0.094-0.087 0.096-0.073 0.006-0.155 0.008-0.255 0.009z"></path>
<path fill="#fff" style="fill: var(--color1, #fff)" d="M16.036 31.54c-0.052 0-0.093-0.039-0.093-0.090v-1.159c0-0.051 0.042-0.090 0.093-0.090s0.093 0.041 0.093 0.090v1.159c0 0.051-0.042 0.090-0.093 0.090z"></path>
<path fill="#fff" style="fill: var(--color1, #fff)" d="M16.036 31.539c-0.052 0-0.093-0.039-0.093-0.090s0.042-0.090 0.093-0.090l0.723-0.004c0.052 0 0.093 0.041 0.093 0.090s-0.043 0.090-0.093 0.090l-0.723 0.004z"></path>
<path fill="#fff" style="fill: var(--color1, #fff)" d="M18.487 0.4c0 0-0.012 0-0.017 0-0.017-0.004-0.050-0.009-0.083-0.013-0.033-0.006-0.068-0.009-0.097-0.015-0.050-0.008-0.091-0.053-0.083-0.101s0.048-0.084 0.1-0.079c0.041 0.006 0.075 0.011 0.11 0.017s0.070 0.011 0.087 0.015c0.050 0.009 0.083 0.056 0.075 0.105-0.008 0.043-0.048 0.073-0.091 0.073l-0.002-0.002z"></path>
</symbol>
</defs>
</svg>
